<?xml version="1.0" standalone="yes"?>
<svg width="1099" height="86">
<path style="fill:#000000; stroke:none;" d="M0 0L0 86L1099 86L1099 0L0 0z"/>
<path style="fill:#97783f; stroke:none;" d="M17 4L17 5C131.391 5 245.617 6 360 6L446 6C457.09 6 471.379 3.02876 480 11L92 11L92 12L380 13L490 14C479.866 -0.386765 467.829 2 452 2L371 2C253.165 2 134.639 -1.05099 17 4z"/>
<path style="fill:#95763e; stroke:none;" d="M615 9L631 6.00463L1086 5C1077.44 0.446968 1063.5 3 1054 3L982 3C895.755 3 809.329 2 723 2L645 2C634.207 2 621.996 -0.813751 615 9z"/>
<path style="fill:#715b31; stroke:none;" d="M135 5L135 6L199 6L179 5L135 5z"/>
<path style="fill:#715a30; stroke:none;" d="M875 5L875 6L966 6L938 5L875 5z"/>
<path style="fill:#2d2413; stroke:none;" d="M433 6L433 7L476 7C464.774 2.28955 445.219 6 433 6M624 6L624 7L666 7C655.012 2.38934 635.957 6 624 6z"/>
<path style="fill:#a6854a; stroke:none;" d="M610 14L720 13L1009 12L1009 11L619 11L620 9C615.349 9.15094 612.841 10.2705 610 14z"/>
<path style="fill:#705a31; stroke:none;" d="M619 10L619 11L677 11L658 10L619 10M423 10L423 11L480 11L462 10L423 10z"/>
<path style="fill:#bb995a; stroke:none;" d="M485 14L489 20L149 20L149 21L403 22L476 22L501 25L499 22C514.881 22.0123 527.053 41.2289 537.83 51.5756C543.266 56.7947 548.527 65.4641 555 57C539.846 55.3608 524.476 32.4764 514 22C521.105 22 525.551 21.9615 531 27L534 24C524.811 16.2289 511.077 21.5698 500 19.8519C494.283 18.9651 491.171 14.2003 485 14z"/>
<path style="fill:#bc9a5a; stroke:none;" d="M568 23L601 22L598 26L603 28C611.267 20.0012 621.185 22 632 22L694 22C779.664 22 865.419 21 951 21L951 20L611 20L615 14C608.983 14.1946 606.307 18.5254 600.911 19.7215C591.479 21.8119 575.22 15.6272 568 23z"/>
<path style="fill:#362c1a; stroke:none;" d="M484 19L484 20L489 20L484 19z"/>
<path style="fill:#846b3c; stroke:none;" d="M466 19L466 20L484 20L466 19z"/>
<path style="fill:#9a7e49; stroke:none;" d="M496 19L496 20L529 20L496 19M571 19L571 20L604 20L571 19z"/>
<path style="fill:#846b3c; stroke:none;" d="M611 19L611 20L636 20L611 19z"/>
<path style="fill:#92753f; stroke:none;" d="M922 21L922 22L935 22L922 21z"/>
<path style="fill:#000000; stroke:none;" d="M499 22L549 73L550 73L601 22C584.177 22 574.227 37.773 563 49C559.86 52.1399 554.656 59.7575 550 60.3688C545.279 60.9888 539.031 51.9015 535.961 48.9105C525.153 38.3824 515.072 22.0018 499 22M514 22L540 49L550 56.7932L560 49L586 22C569.641 22 559.415 31.6346 550 45C538.467 33.4669 531.054 22 514 22z"/>
<path style="fill:#d5b36f; stroke:none;" d="M532 25C533.464 30.2141 543.801 43.8102 550 43.0787C556.514 42.3101 567.399 28.577 570 23L550 37.9444L532 25z"/>
<path style="fill:#d9b671; stroke:none;" d="M553 57C563.777 53.975 583.302 33.0753 588 23C577.105 25.9761 557.695 46.9315 553 57z"/>
<path style="fill:#d7b56f; stroke:none;" d="M497 26C501.356 35.3411 517.285 52.6523 528 53C524.036 44.4999 506.925 24.9056 497 26M572 53C582.142 52.6709 599.316 35.5622 602 26C592.82 26.6921 574.468 44.2065 572 53z"/>
<path style="fill:#705a31; stroke:none;" d="M549 44L550 45L549 44z"/>
<path style="fill:#ad8c4f; stroke:none;" d="M571 51L550 73L549 73C545.251 67.6776 540.98 61.9824 534 64C536.88 68.0889 544.51 78.7932 550 78.7932C553.17 78.7932 555.977 75.0074 558 72.9992C564.435 66.6118 571.772 60.4212 577 53L571 51z"/>
<path style="fill:#c4a361; stroke:none;" d="M523 53C526.64 58.1674 531.148 64.1148 538 63C534.94 56.4374 530.267 52.6623 523 53z"/>
</svg>
