<svg width="20" height="20" viewBox="0 0 20 20" fill="none" xmlns="http://www.w3.org/2000/svg">
<path d="M9.99141 0.639283C4.67832 0.637135 0.375 4.93831 0.375 10.2471C0.375 14.4451 3.06699 18.0137 6.81602 19.3242C7.3209 19.451 7.24356 19.0922 7.24356 18.8473V17.1823C4.32813 17.5239 4.20996 15.5946 4.01445 15.2723C3.61914 14.5977 2.68457 14.4258 2.96387 14.1035C3.62773 13.7619 4.30449 14.1895 5.08867 15.3475C5.65586 16.1875 6.7623 16.0457 7.32305 15.9061C7.44551 15.4012 7.70762 14.95 8.06855 14.5998C5.04785 14.0584 3.78887 12.2151 3.78887 10.0237C3.78887 8.96018 4.13906 7.98264 4.82656 7.19417C4.38828 5.89436 4.86738 4.78147 4.93184 4.61604C6.18008 4.50432 7.47773 5.50979 7.57871 5.58928C8.28769 5.39807 9.09766 5.2971 10.0043 5.2971C10.9152 5.2971 11.7273 5.40237 12.4428 5.59573C12.6855 5.41096 13.8887 4.54729 15.0488 4.65256C15.1111 4.81799 15.5795 5.9051 15.167 7.18772C15.8631 7.97835 16.2176 8.96448 16.2176 10.0301C16.2176 12.2258 14.95 14.0713 11.9207 14.6041C12.1802 14.8593 12.3862 15.1636 12.5267 15.4993C12.6673 15.835 12.7395 16.1953 12.7393 16.5592V18.9762C12.7564 19.1696 12.7393 19.3608 13.0615 19.3608C16.8664 18.0781 19.6057 14.4838 19.6057 10.2492C19.6057 4.93831 15.3002 0.639283 9.99141 0.639283Z" fill="white"/>
</svg>
