<?xml version="1.0" standalone="yes"?>
<svg width="60" height="60">
<path style="fill:#ffffff; stroke:none;" d="M0 0L0 60L60 60L60 0L0 0z"/>
<path style="fill:#463501; stroke:none;" d="M12 5L27 4L27 9L36 9L36 8L28 8L28 3L12 5z"/>
<path style="fill:#ffc107; stroke:none;" d="M13 4C20.1605 16.1034 19.8573 43.5969 13 56C21.1565 56 46.2228 60.1485 49 51L25 51L25 4L13 4z"/>
<path style="fill:#eca407; stroke:none;" d="M25 4L25 51C32.0841 51 46.7075 53.8115 52 49L27 49L27 11C38.5069 11.4953 51.1564 19.1721 51.7215 32C51.9359 36.8684 48.9943 41.3467 48 46C52.6582 42.922 53.0001 37.2028 52.9985 32C52.9935 16.6548 41.2877 9.00946 27 9L27 4L25 4z"/>
<path style="fill:#0c0900; stroke:none;" d="M13 5L15 8L13 5z"/>
<path style="fill:#020100; stroke:none;" d="M15 8L15 13L16 13L15 8z"/>
<path style="fill:#b78a05; stroke:none;" d="M16 8L16 13L17 13L16 8z"/>
<path style="fill:#433001; stroke:none;" d="M36 9L36 10L41 11L41 10L36 9z"/>
<path style="fill:#757d53; stroke:none;" d="M27 11L27 49L28 49L28 12L33 12L27 11z"/>
<path style="fill:#080500; stroke:none;" d="M41.6667 11.3333L42.3333 11.6667L41.6667 11.3333z"/>
<path style="fill:#00559d; stroke:none;" d="M28 12L28 33L29 33L30 14L39 14L28 12z"/>
<path style="fill:#868241; stroke:none;" d="M36.6667 12.3333L37.3333 12.6667L36.6667 12.3333z"/>
<path style="fill:#271c00; stroke:none;" d="M43 12L44 13L43 12z"/>
<path style="fill:#61460d; stroke:none;" d="M11 18L16 13L11 18z"/>
<path style="fill:#070500; stroke:none;" d="M44 13L47 15L44 13z"/>
<path style="fill:#db9e06; stroke:none;" d="M15 14C6.68229 22.2066 1.66241 41.4531 14 49L8.42207 31L15 14z"/>
<path style="fill:#0277bd; stroke:none;" d="M30 14L30 31C37.9751 24.761 46.3694 14.527 49 32L51 32C50.752 21.4521 46.2107 16.1239 36 19C35.3483 15.0892 33.8644 14.3002 30 14z"/>
<path style="fill:#00b1ff; stroke:none;" d="M36 19L43 17L43 15C38.9308 14.2451 36.7509 14.6789 36 19z"/>
<path style="fill:#5d4302; stroke:none;" d="M47 15L49 18L47 15z"/>
<path style="fill:#01579c; stroke:none;" d="M15 17C7.50527 26.1217 6.20006 39.8212 16 48L15 17z"/>
<path style="fill:#b8a330; stroke:none;" d="M16 17L16 48L17 48L16 17z"/>
<path style="fill:#694c02; stroke:none;" d="M9.33333 19.6667L9.66667 20.3333L9.33333 19.6667M50.3333 19.6667L50.6667 20.3333L50.3333 19.6667z"/>
<path style="fill:#0091ea; stroke:none;" d="M30 39C36.4542 35.1182 41.3936 33.021 49 33C48.0418 12.0818 30.0524 24.1705 30 39z"/>
<path style="fill:#725202; stroke:none;" d="M8.33333 21.6667L8.66667 22.3333L8.33333 21.6667z"/>
<path style="fill:#715102; stroke:none;" d="M51.3333 21.6667L51.6667 22.3333L51.3333 21.6667z"/>
<path style="fill:#523b01; stroke:none;" d="M7.33333 23.6667L7.66667 24.3333L7.33333 23.6667z"/>
<path style="fill:#513a01; stroke:none;" d="M52.3333 23.6667L52.6667 24.3333L52.3333 23.6667z"/>
<path style="fill:#0278be; stroke:none;" d="M13 24C10.4713 29.9928 11.2835 34.8916 13 41L14 41L13 24z"/>
<path style="fill:#583f01; stroke:none;" d="M6 25L6 29L7 29L6 25M53 25L53 29L54 29L53 25z"/>
<path style="fill:#9c7003; stroke:none;" d="M6 29L6 38L7 38L6 29z"/>
<path style="fill:#a18b2e; stroke:none;" d="M8 29L8 35L9 35L8 29z"/>
<path style="fill:#a49334; stroke:none;" d="M51 29L51 36L52 36L51 29z"/>
<path style="fill:#9d7103; stroke:none;" d="M53 29L53 38L54 38L53 29z"/>
<path style="fill:#020100; stroke:none;" d="M5 30L5 35L6 35L5 30M54 30L54 35L55 35L54 30z"/>
<path style="fill:#0277bd; stroke:none;" d="M29 32L28 48C42.494 48 47.3806 48.299 49 33C41.4559 33.005 35.9618 34.1141 30 39L29 32z"/>
<path style="fill:#00579c; stroke:none;" d="M49 32L48 40L51 32L49 32z"/>
<path style="fill:#87833f; stroke:none;" d="M50.3333 37.6667L50.6667 38.3333L50.3333 37.6667z"/>
<path style="fill:#030200; stroke:none;" d="M6.33333 38.6667L6.66667 39.3333L6.33333 38.6667M53.3333 38.6667L53.6667 39.3333L53.3333 38.6667z"/>
<path style="fill:#513a01; stroke:none;" d="M7 39L7 42L8 42L7 39M52 39L52 42L53 42L52 39z"/>
<path style="fill:#0091ea; stroke:none;" d="M43 40L40 46L46 40L43 40z"/>
<path style="fill:#938f40; stroke:none;" d="M49.3333 40.6667L49.6667 41.3333L49.3333 40.6667z"/>
<path style="fill:#241900; stroke:none;" d="M8.33333 42.6667L8.66667 43.3333L8.33333 42.6667z"/>
<path style="fill:#231900; stroke:none;" d="M51.3333 42.6667L51.6667 43.3333L51.3333 42.6667z"/>
<path style="fill:#140e00; stroke:none;" d="M9.33333 44.6667L9.66667 45.3333L9.33333 44.6667M50.3333 44.6667L50.6667 45.3333L50.3333 44.6667z"/>
<path style="fill:#b3821c; stroke:none;" d="M47 45L44 49C46.8254 48.5143 48.5075 47.8495 47 45z"/>
<path style="fill:#382801; stroke:none;" d="M10 46L11 47L10 46z"/>
<path style="fill:#3b2a03; stroke:none;" d="M49 46L50 47L49 46z"/>
<path style="fill:#050300; stroke:none;" d="M11.3333 47.6667L11.6667 48.3333L11.3333 47.6667z"/>
<path style="fill:#b5841c; stroke:none;" d="M14 47L15 53L16 53L14 47z"/>
<path style="fill:#412d02; stroke:none;" d="M48 47L53 50L48 47z"/>
<path style="fill:#42838b; stroke:none;" d="M28 48L28 49L44 49L28 48z"/>
<path style="fill:#463501; stroke:none;" d="M12 49L13 55L14 55C14.7099 51.9424 14.6692 50.7316 12 49z"/>
<path style="fill:#3a2901; stroke:none;" d="M51 50L52 51L51 50z"/>
<path style="fill:#4d3902; stroke:none;" d="M50 51L51 52L50 51z"/>
<path style="fill:#050400; stroke:none;" d="M49.3333 52.6667L49.6667 53.3333L49.3333 52.6667z"/>
<path style="fill:#0f0b00; stroke:none;" d="M48 54L49 55L48 54z"/>
<path style="fill:#463501; stroke:none;" d="M12 55C16.9512 60.666 39.4946 57 47 57L47 56L12 55z"/>
<path style="fill:#1e1700; stroke:none;" d="M47 55L48 56L47 55z"/>
</svg>
