<svg width="18" height="18" viewBox="0 0 18 18" fill="none" xmlns="http://www.w3.org/2000/svg">
<path d="M8.99758 5.99872C7.345 5.99872 5.99636 7.34738 5.99636 9C5.99636 10.6526 7.345 12.0013 8.99758 12.0013C10.6502 12.0013 11.9988 10.6526 11.9988 9C11.9988 7.34738 10.6502 5.99872 8.99758 5.99872ZM17.999 9C17.999 7.75716 18.0103 6.52558 17.9405 5.28499C17.8707 3.84402 17.5419 2.56515 16.4883 1.51144C15.4323 0.455477 14.1557 0.129006 12.7148 0.0592092C11.472 -0.0105879 10.2404 0.000669702 8.99983 0.000669702C7.75702 0.000669702 6.52546 -0.0105879 5.28489 0.0592092C3.84395 0.129006 2.5651 0.457728 1.51141 1.51144C0.455469 2.5674 0.129004 3.84402 0.0592081 5.28499C-0.0105877 6.52783 0.000669689 7.75941 0.000669689 9C0.000669689 10.2406 -0.0105877 11.4744 0.0592081 12.715C0.129004 14.156 0.45772 15.4348 1.51141 16.4886C2.56736 17.5445 3.84395 17.871 5.28489 17.9408C6.52771 18.0106 7.75927 17.9993 8.99983 17.9993C10.2426 17.9993 11.4742 18.0106 12.7148 17.9408C14.1557 17.871 15.4346 17.5423 16.4883 16.4886C17.5442 15.4326 17.8707 14.156 17.9405 12.715C18.0125 11.4744 17.999 10.2428 17.999 9ZM8.99758 13.6179C6.44215 13.6179 4.3798 11.5555 4.3798 9C4.3798 6.44452 6.44215 4.38213 8.99758 4.38213C11.553 4.38213 13.6154 6.44452 13.6154 9C13.6154 11.5555 11.553 13.6179 8.99758 13.6179ZM13.8045 5.27148C13.2078 5.27148 12.726 4.78966 12.726 4.193C12.726 3.59635 13.2078 3.11452 13.8045 3.11452C14.4011 3.11452 14.8829 3.59635 14.8829 4.193C14.8831 4.33468 14.8554 4.475 14.8012 4.60593C14.7471 4.73686 14.6677 4.85582 14.5675 4.956C14.4673 5.05618 14.3483 5.13561 14.2174 5.18975C14.0865 5.24388 13.9462 5.27166 13.8045 5.27148Z" fill="white"/>
</svg>
