<?xml version="1.0" standalone="yes"?>
<svg width="999" height="451">
<path style="fill:#ffffff; stroke:none;" d="M0 0L0 36L256 36L256 0L0 0z"/>
<path style="fill:#000000; stroke:none;" d="M256 0L256 36L232 36C229.505 44.8643 220.252 46.3394 213 50L213 51C227.539 51 245.885 54.028 260 50.5818C267.355 48.7862 274.247 42.646 281 39.2477C294.1 32.6555 307.995 27.3605 322 23.0255C365.134 9.67398 413.787 1 459 1L440 0L399 0L256 0z"/>
<path style="fill:#322515; stroke:none;" d="M459 0L459 1L468 1L459 0z"/>
<path style="fill:#614729; stroke:none;" d="M468 0L468 1L477 1L468 0z"/>
<path style="fill:#8e673a; stroke:none;" d="M477 0L477 1L485 1L477 0z"/>
<path style="fill:#c39359; stroke:none;" d="M212 52L212 58C230.558 58 255.233 62.2515 273 57C269.223 43.4929 287.874 48.0759 296 44.2546C321.639 32.1986 349.348 25.4399 377 19.9992C454.051 4.83902 536.717 4.89905 614 18.321C634.083 21.8089 654.581 26.0288 674 32.358C686.224 36.3421 698.474 44.1155 711 46.6211C717.652 47.9518 725.231 47 732 47C725.091 38.9397 710.752 34.5882 701 30.8109C672.536 19.7853 642.026 13.1521 612 8.24615C532.6 -4.72696 443.886 -4.96805 365 12.0146C340.996 17.1822 316.641 23.2069 294 32.8503C282.089 37.9236 270.18 47.9978 258 51.49C244.646 55.3187 225.9 52 212 52z"/>
<path style="fill:#6f512e; stroke:none;" d="M519 0L519 1L529 1L519 0z"/>
<path style="fill:#000000; stroke:none;" d="M529 0L529 1C577.142 1 627.803 7.85706 674 21.7708C695.826 28.3443 715.601 41.7053 737 48L737 0L529 0z"/>
<path style="fill:#2e1a06; stroke:none;" d="M737 0L736 50C727.459 45.4417 713.549 47.9994 704 48C701.244 48.0002 695.966 47.0686 694.032 49.6034C690.863 53.7582 699.828 62.7242 699.985 68C700.44 83.3041 700 98.6885 700 114C700 121.136 701.456 130.171 699.146 137C693.796 152.817 668.18 156.423 658.649 142.996C650.443 131.436 654 112.43 654 99C654 87.8471 652.206 74.9708 654.228 64.0038C655.091 59.3271 662.344 55.9229 661.11 51.108C660.194 47.5366 656.028 47.1106 653 47.0154C645.931 46.7932 624.812 43.5912 619.604 48.7423C615.039 53.2574 622.689 58.383 624.543 62.0146C628.317 69.4084 626 81.8719 626 90C626 120.219 619.008 162.752 657 172.522C663.853 174.284 670.969 174.191 678 173.985C685.823 173.755 692.932 169.939 700 167C705.285 175.616 726.942 170.066 736 171.134C755.351 173.418 775.5 172 795 172C800.902 172 811.801 174.069 816.722 170.258C822.688 165.637 826.83 147.264 827 140C832.392 139.147 848.958 143.001 851.378 136.852C852.574 133.814 850.615 129.997 850 127C858.078 126.736 864.716 108.692 858.397 102.618C855.684 100.011 849.473 102.105 846 101.714C841.113 101.163 837.652 102.704 833 102.846C826.23 103.054 820.057 99.4402 813 101.653C808.309 103.123 804.926 107.246 801 110C801 105.759 802.475 98.0627 799.972 94.4337C796.701 89.6914 777.64 93 772 93L772 70C778.835 70 787.37 68.6374 793.911 70.8395C798.064 72.2379 803.115 78.5564 807.772 75.9529C813.45 72.7787 811.93 51.3191 813 45L768 45L768 0L737 0z"/>
<path style="fill:#ffffff; stroke:none;" d="M768 0L768 45L999 45L999 0L768 0z"/>
<path style="fill:#584229; stroke:none;" d="M446 1L446 2L454 2L446 1z"/>
<path style="fill:#8c663a; stroke:none;" d="M541 1L541 2L550 2L541 1z"/>
<path style="fill:#7f5c34; stroke:none;" d="M436 2L436 3L443 3L436 2z"/>
<path style="fill:#3a2c1c; stroke:none;" d="M561 2L561 3L568 3L561 2z"/>
<path style="fill:#715432; stroke:none;" d="M424 3L424 4L429 4L424 3z"/>
<path style="fill:#6a4e2e; stroke:none;" d="M570 3L570 4L575 4L570 3z"/>
<path style="fill:#816038; stroke:none;" d="M415 4L415 5L420 5L415 4z"/>
<path style="fill:#755836; stroke:none;" d="M408 5L408 6L411 6L408 5z"/>
<path style="fill:#6a4e2d; stroke:none;" d="M392 7L392 8L395 8L392 7z"/>
<path style="fill:#6c502f; stroke:none;" d="M386 8L386 9L389 9L386 8z"/>
<path style="fill:#765937; stroke:none;" d="M380 9L380 10L383 10L380 9z"/>
<path style="fill:#9a754b; stroke:none;" d="M291 46L291 47C300.568 46.1594 310.014 40.3477 319 37.0532C333.213 31.8423 348.187 27.7674 363 24.6651C414.437 13.8929 467.46 9.72726 520 11.0146C564.03 12.0935 608.07 17.9333 651 27.8873C663.886 30.8752 676.626 35.422 689 40.0501C695.836 42.6072 702.629 46.6176 710 47C702.905 41.63 693.222 39.3637 685 36.1891C659.323 26.2744 632.038 21.388 605 16.9197C502.078 -0.0887451 387.912 5.70563 291 46z"/>
<path style="fill:#735632; stroke:none;" d="M623 10L623 11L626 11L623 10z"/>
<path style="fill:#d3c6b8; stroke:none;" d="M472 11L472 12L526 12L508 11L472 11z"/>
<path style="fill:#e6e6e6; stroke:none;" d="M295 46L295 47C315.09 47 331.707 37.5911 351 32.8982C385.074 24.6098 420.908 17.8745 456 17.0146C470.696 16.6545 485.281 16 500 16C505.687 16 512.767 17.4499 517 13C509.848 10.8861 501.427 12 494 12C479.666 12 465.259 11.4732 451 12.8302C417.079 16.0583 383.185 19.177 350 27.4753C331.06 32.2116 313.575 40.651 295 46z"/>
<path style="fill:#f7f7f7; stroke:none;" d="M516 12L515 16C554.225 16 595.767 20.1853 634 29.2346C657.321 34.7543 681.359 47.0156 705 47C692.015 36.5096 668.94 32.6136 653 28.6266C608.269 17.4381 562.118 12 516 12z"/>
<path style="fill:#cdbfae; stroke:none;" d="M541 12L541 13L546 13L541 12z"/>
<path style="fill:#725532; stroke:none;" d="M634 12L634 13L637 13L634 12z"/>
<path style="fill:#513c24; stroke:none;" d="M358.667 13.3333L359.333 13.6667L358.667 13.3333z"/>
<path style="fill:#cfc2b1; stroke:none;" d="M556 13L556 14L560 14L556 13z"/>
<path style="fill:#62492b; stroke:none;" d="M639.667 13.3333L640.333 13.6667L639.667 13.3333z"/>
<path style="fill:#473520; stroke:none;" d="M353.667 14.3333L354.333 14.6667L353.667 14.3333z"/>
<path style="fill:#cebfae; stroke:none;" d="M567 14L567 15L572 15L567 14z"/>
<path style="fill:#5b4327; stroke:none;" d="M644.667 14.3333L645.333 14.6667L644.667 14.3333z"/>
<path style="fill:#bfab93; stroke:none;" d="M578 15L578 16L582 16L578 15z"/>
<path style="fill:#bfbfbe; stroke:none;" d="M474 16L474 17L565 20L535 16.9606L474 16z"/>
<path style="fill:#765a38; stroke:none;" d="M652.667 16.3333L653.333 16.6667L652.667 16.3333z"/>
<path style="fill:#6e5333; stroke:none;" d="M341.667 17.3333L342.333 17.6667L341.667 17.3333z"/>
<path style="fill:#aeaead; stroke:none;" d="M358 31L358 32C368.465 31.5495 378.656 27.661 389 26.1698C418.92 21.8565 448.738 18 479 18C468.422 13.5614 451.102 17.4003 440 18.7145C412.43 21.9781 385.13 23.9777 358 31z"/>
<path style="fill:#68676c; stroke:none;" d="M479 17L479 18L519 18C508.488 13.589 490.434 17 479 17z"/>
<path style="fill:#cabaa8; stroke:none;" d="M593 17L593 18L597 18L593 17z"/>
<path style="fill:#56422a; stroke:none;" d="M657.667 17.3333L658.333 17.6667L657.667 17.3333z"/>
<path style="fill:#3e3d51; stroke:none;" d="M457 18L457 19L468 19L457 18z"/>
<path style="fill:#0f0d1d; stroke:none;" d="M314 46L314 47C320.468 47 341.037 43.5572 345.258 48.4375C349.403 53.231 347 65.9951 347 72L352 71L352 73L360 75L356 78L363 78L366 69L365 65L378 69L374 73L374 74L382 71C383.274 78.7833 388.597 81.729 385 90L383 90C381.857 86.6796 379.056 81.7534 376 86L380 86L380 92L380 93L380 94L377 97C375.349 92.966 374.847 90.5362 370 91L375 96L374 100L380 99L382 102L379 105L384 103L387 107L391 105L388 107L389 114C398.23 101.664 406.086 77.9741 410.076 63.0046C411.539 57.5173 402.845 54.0732 407.337 49.3179C412.502 43.851 429.95 47 437 47C438.089 39.2615 434.33 35.0266 430 29C433.243 28.7319 440.541 27.9745 439 33L439 34L447 37L444 46L445 46L448 36L441 34L446 32L445 35L449 33L451 38L454 37L454 44L459 46L458 43L460 40C462.657 41.7339 464.523 42.9141 463 46L463 47L473 55L473 59C480.181 59.7483 494.99 66.1609 486 75L480 89L486 88L490 82L491 82L494 89L497 91C503.378 85.6991 505.834 76.377 511.3 70C523.734 55.4953 544.007 46.8724 563 46.0394C572.755 45.6115 597.327 43.1618 604.397 51.4298C607.175 54.6791 606 61.0377 606 65C606 68.3097 606.746 72.8791 604.972 75.8511C601.127 82.2958 582.999 69.1974 576 69.0146C544.743 68.1986 515.794 93.5182 529.475 127C537.759 147.273 566.055 159.421 586.852 151.606C592.513 149.478 591.312 124.188 589.258 119.039C587.968 115.806 584.332 114.179 583.175 110.965C582.273 108.458 583.936 106.351 586.059 105.179C589.476 103.294 594.247 104 598 104C603.343 104 612.514 102.271 616.667 106.434C619.478 109.251 618.099 113.475 618.015 117C617.806 125.657 618 134.341 618 143C618 149.036 620.619 162.731 617.168 167.721C613.597 172.887 602.568 172.488 597 173.155C576.084 175.659 559.435 173.474 539 170C540.952 173.969 542.088 175.811 540 180L540 181L545 184L543 179C548.846 182.655 548.05 186.454 545 192L544 192L537 193L540 189L539 186L537 186L537 197C534.523 195.513 529.634 190.771 529 196L528 196C525.876 193.929 523.754 194.827 522 197L521 197L520 197L515 189L519 189L518 185L505 188L507 184L506 187L520 178L520 179L518 182L522 181L520 186L524 183L531 185L535 183L534 180L532 182L527 182L520 177L522 170L520 171L516 174L516 162L508 166L509 171L504 169L499 172L500 176L496 174L488 184L491 181L491 180L486 182L486 178L485 178L484 181L481 180C479.177 184.221 477.769 187.393 483 189L482 192L479 191L477 196L492 202L481 200C485.27 211.35 508.512 207.749 519 206.907C522.131 206.655 525.905 204.725 528.941 206.121C532.867 207.925 532.974 212.291 532.999 216C533.064 225.409 533.598 234.64 534 244L541 245L536 239C539.524 237.188 541.623 236.164 541 232L545 236L548 235L555 247L558 246L556 255L550 253L549 256L556 257L556 259L543 265L545 262C539.407 258.656 537.28 260.291 535 266L531 265L536 268L536 273L547 276L544 275L548 281L554 279L552 291L562 286L560 281L556 283L556 279L563 281L558 269L550 268L550 267L550 264L555 265L560 259C556.805 265.026 559.015 273.926 566 276C569.077 263.077 569.963 238.905 566.57 226.001C565.174 220.69 553.452 215.494 556.086 210.147C557.714 206.844 561.891 207.022 565 207.001C572.736 206.948 590.43 203.77 596.698 208.742C599.43 210.91 600.311 215.155 602.224 218C606.664 224.604 612.058 230.764 617.003 237C634.672 259.283 653.065 281.154 670 304L671 304C671 279.185 672.634 253.752 670.972 229C670.544 222.624 658.504 215.202 659.833 211C661.2 206.68 666.477 207 670 207L698 207C701.511 207 706.347 206.244 708.278 210.028C710.971 215.307 699.749 220.287 697.861 225C693.408 236.12 697 255.028 697 267C697 271.088 695.147 278.96 700 280L698 285L704 287L704 280L710 282L718 281L716 283L721 283L721 291L717 290L719 297L716 295L715 299L705 296L707 293C703.505 291.423 701.773 291.256 699 294L703 293L705 304L710 302L710 306L709 306L708 304L705 311L708 309L707 316L704 315L710 318L709 314L710 314L712 319L719 317L711 306C714.054 305.346 713.936 303.993 714 301L716 301L716 306L720 305L721 337L722 337L722 237C722 232.337 722.989 226.288 720.682 222.043C718.772 218.529 710.266 214.943 712.832 210.147C716.313 203.641 737.594 207 744 207C775.845 207 808.083 205.425 832.985 229.09C842.989 238.597 850.443 252.147 851.829 266C852.675 274.448 848.213 290.678 856 296L853 281L863 272L865 269C848.225 237.112 867.346 206.837 903 204L903 203C874.281 196.178 850.347 168.281 845 140L827 140C826.619 147.418 822.147 165.799 815.867 170.258C810.616 173.985 800.143 172 794 172C774.631 172 755.203 172.568 736 170.741C725.573 169.748 707.707 175.555 700 167C691.871 169.341 684.713 173.878 676 173.996C669.537 174.083 663.272 174.014 657 172.254C618.915 161.564 626 118.68 626 88C626 80.2742 627.987 69.2428 624.991 62.0146C623.448 58.2936 616.051 53.8367 619.623 49.4337C624.287 43.6843 645.123 46.7996 652 47.0154C655.012 47.11 659.502 47.5674 660.503 51.108C661.626 55.0803 656.08 57.8221 654.742 61.0895C653.193 64.8721 654 69.9953 654 74L654 116C654 124.09 653.025 132.447 656.444 140C662.977 154.434 687.008 155.106 696.442 142.96C703.356 134.058 700 116.68 700 106C700 92.9819 703.401 74.4217 699.347 62.0394C691.901 39.2964 653.617 34.9914 633 30.8009C564.662 16.9109 495.282 15.2371 426 21.8302C388 25.4464 349.801 32.1895 314 46z"/>
<path style="fill:#434251; stroke:none;" d="M532 18L532 19L541 19L532 18z"/>
<path style="fill:#828288; stroke:none;" d="M541 18L541 19L549 19L541 18z"/>
<path style="fill:#473723; stroke:none;" d="M661.667 18.3333L662.333 18.6667L661.667 18.3333z"/>
<path style="fill:#c9bcad; stroke:none;" d="M389 19L389 20L394 20L389 19z"/>
<path style="fill:#504e5d; stroke:none;" d="M443 19L443 20L450 20L443 19z"/>
<path style="fill:#52515d; stroke:none;" d="M550 19L550 20L556 20L550 19z"/>
<path style="fill:#735837; stroke:none;" d="M664.667 19.3333L665.333 19.6667L664.667 19.3333z"/>
<path style="fill:#c9beb1; stroke:none;" d="M383 20L383 21L387 21L383 20z"/>
<path style="fill:#3d3c49; stroke:none;" d="M433 20L433 21L439 21L433 20z"/>
<path style="fill:#504f5a; stroke:none;" d="M562 20L562 21L567 21L562 20z"/>
<path style="fill:#929296; stroke:none;" d="M567 20L567 21L572 21L567 20z"/>
<path style="fill:#b6b6b5; stroke:none;" d="M572 20L572 21L597 23L572 20z"/>
<path style="fill:#373646; stroke:none;" d="M421 21L421 22L429 22L421 21z"/>
<path style="fill:#5f5e66; stroke:none;" d="M573 21L573 22L579 22L573 21z"/>
<path style="fill:#d5c8ba; stroke:none;" d="M619 21L619 22L622 22L619 21z"/>
<path style="fill:#42321f; stroke:none;" d="M672.667 21.3333L673.333 21.6667L672.667 21.3333z"/>
<path style="fill:#7c5e3b; stroke:none;" d="M323.667 22.3333L324.333 22.6667L323.667 22.3333z"/>
<path style="fill:#52515d; stroke:none;" d="M583 22L583 23L586 23L583 22z"/>
<path style="fill:#cfc0ae; stroke:none;" d="M625.667 22.3333L626.333 22.6667L625.667 22.3333z"/>
<path style="fill:#614a2e; stroke:none;" d="M675.667 22.3333L676.333 22.6667L675.667 22.3333z"/>
<path style="fill:#83643e; stroke:none;" d="M320.667 23.3333L321.333 23.6667L320.667 23.3333z"/>
<path style="fill:#888789; stroke:none;" d="M591 23L591 24L597 24L591 23z"/>
<path style="fill:#b2b2b1; stroke:none;" d="M597 23L597 24L601 24L597 23z"/>
<path style="fill:#cabaa7; stroke:none;" d="M630.667 23.3333L631.333 23.6667L630.667 23.3333z"/>
<path style="fill:#4d4c57; stroke:none;" d="M596 24L596 25L601 25L596 24z"/>
<path style="fill:#afafae; stroke:none;" d="M601 24L601 25L613 26L601 24z"/>
<path style="fill:#c7b6a3; stroke:none;" d="M635.667 24.3333L636.333 24.6667L635.667 24.3333z"/>
<path style="fill:#424151; stroke:none;" d="M386 26L386 27L391 27L386 26z"/>
<path style="fill:#464551; stroke:none;" d="M610 26L610 27L613 27L610 26z"/>
<path style="fill:#b5b5b3; stroke:none;" d="M613 26L613 27L661 37C649.183 29.5749 626.822 26.0091 613 26z"/>
<path style="fill:#484658; stroke:none;" d="M383 27L383 28L386 28L383 27z"/>
<path style="fill:#797982; stroke:none;" d="M615 27L615 28L621 28L615 27z"/>
<path style="fill:#cbbba9; stroke:none;" d="M648.667 27.3333L649.333 27.6667L648.667 27.3333z"/>
<path style="fill:#1e1b37; stroke:none;" d="M430 29C433.337 35.6911 437.483 39.1009 437 47C443.903 50.6215 445.45 57.1777 448.201 64C452.754 75.292 458.206 86.4355 462 98L468 89L477 89L477 88L475 85L469 80C471.971 82.5011 474.287 84.5948 477 81L473 82L470 77L475 76L474 73L481 67L483 69L484 69L487 67C485.092 59.7655 479.578 59.2767 473 59L473 55L463 47L463 46C465.899 43.2448 462.793 41.2321 460 40L459 46L454 44L454 37L451 38L449 33L445 35L446 32L441 34L448 36L445 46L444 46L447 37L439 34C442.466 28.0078 433.858 28.3638 430 29z"/>
<path style="fill:#5e5e62; stroke:none;" d="M622.667 28.3333L623.333 28.6667L622.667 28.3333z"/>
<path style="fill:#c2af99; stroke:none;" d="M652.667 28.3333L653.333 28.6667L652.667 28.3333z"/>
<path style="fill:#4f4e5b; stroke:none;" d="M626 29L626 30L629 30L626 29z"/>
<path style="fill:#c4b29c; stroke:none;" d="M656.667 29.3333L657.333 29.6667L656.667 29.3333z"/>
<path style="fill:#565564; stroke:none;" d="M631.667 30.3333L632.333 30.6667L631.667 30.3333z"/>
<path style="fill:#575663; stroke:none;" d="M636.667 31.3333L637.333 31.6667L636.667 31.3333z"/>
<path style="fill:#c7b7a2; stroke:none;" d="M663.667 31.3333L664.333 31.6667L663.667 31.3333z"/>
<path style="fill:#aaaaa8; stroke:none;" d="M321 42L321 43L358 33C348.791 29.2437 329.85 38.5018 321 42z"/>
<path style="fill:#4e4d5b; stroke:none;" d="M358 32L358 33L361 33L358 32z"/>
<path style="fill:#5d5c68; stroke:none;" d="M640.667 32.3333L641.333 32.6667L640.667 32.3333z"/>
<path style="fill:#4c4b58; stroke:none;" d="M644.667 33.3333L645.333 33.6667L644.667 33.3333z"/>
<path style="fill:#000000; stroke:none;" d="M0 36L0 272L9 272L9 409L256 409L256 451L512 451L512 429L768 429L768 409L976 409L976 344C968.621 344 958.006 341.988 951.015 344.224C945.734 345.912 940.974 352.258 937 355.914C929.209 363.081 920.806 369.612 912 375.485C893.208 388.017 871.107 397.86 849 402.639C817.399 409.47 785.168 408 753 408L620 408L560 408C549.858 408 538.434 406.395 529 410.796C510.765 419.303 512.041 438.62 499 450C495.988 433.052 483.067 413.633 466 408.789C449.01 403.966 425.657 408 408 408L285 408C204.788 408 121.881 414.848 60.0147 352.985C48.6366 341.608 38.2927 328.793 30 315C19.6591 297.8 11.8395 279.385 6.64043 260C-1.31303 230.345 1 198.384 1 168C15.0416 177.6 28.6806 184.724 46 185.91C94.2155 189.212 133.467 147.92 128.83 100C126.911 80.1648 117.19 66.0073 105 51L181 51L181 50C172.98 47.6746 164.273 44.2739 161 36L0 36z"/>
<path style="fill:#2e1a06; stroke:none;" d="M161 36C163.742 47.2948 180.706 45.5424 181.891 56.0038C185.185 85.0699 182.356 116.731 181.996 146C181.947 150.04 181.541 154.444 179.157 157.871C177.014 160.95 170.15 163.942 173.047 168.682C175.806 173.197 188.441 171 193 171L241 171C246.008 171 255.498 172.807 259.582 169.397C264.019 165.69 275.658 138.319 266.941 136.492C260.542 135.149 249.499 144.779 243 146.78C233.043 149.845 221.166 146.802 211 146L211 84C211 75.1103 209.053 63.5875 211.434 55.0038C214.312 44.6268 230.158 47.9047 232 36L161 36z"/>
<path style="fill:#4f4e5b; stroke:none;" d="M339 37L339 38L342 38L339 37z"/>
<path style="fill:#585767; stroke:none;" d="M659.667 37.3333L660.333 37.6667L659.667 37.3333z"/>
<path style="fill:#b6b6b5; stroke:none;" d="M661 37L661 38L694 49C686.737 42.2114 670.844 37.5042 661 37z"/>
<path style="fill:#6b6b6f; stroke:none;" d="M663.667 38.3333L664.333 38.6667L663.667 38.3333z"/>
<path style="fill:#69686e; stroke:none;" d="M666.667 39.3333L667.333 39.6667L666.667 39.3333z"/>
<path style="fill:#58575e; stroke:none;" d="M329 40L329 41L332 41L329 40z"/>
<path style="fill:#62616e; stroke:none;" d="M669 40L669 41L672 41L669 40z"/>
<path style="fill:#9b753c; stroke:none;" d="M178 41L178 42L215 42C205.202 37.8887 188.649 41 178 41z"/>
<path style="fill:#cc9649; stroke:none;" d="M180 42L180 43C189.868 51.8442 187 65.9319 187 78L188 78L188 69L196 76C199.063 75.8813 203.66 75.9673 202 80L202 81L205 88L206 88C206 71.3945 203.666 56.3045 213 42L180 42z"/>
<path style="fill:#606069; stroke:none;" d="M675.667 42.3333L676.333 42.6667L675.667 42.3333z"/>
<path style="fill:#a1a1a2; stroke:none;" d="M310 46L310 47L318 45L310 46z"/>
<path style="fill:#7a7a80; stroke:none;" d="M681.667 44.3333L682.333 44.6667L681.667 44.3333z"/>
<path style="fill:#000000; stroke:none;" d="M813 45L811 51L895 51C889.562 58.7501 882.981 65.2721 878.89 74C866.386 100.671 870.15 133.667 887.899 157C907.077 182.212 941.134 191.42 971 182.859C979.268 180.489 992.163 176.099 997.397 168.816C1002.43 161.804 999 143.447 999 135L999 45L813 45z"/>
<path style="fill:#2e1a06; stroke:none;" d="M308 148L308 115C312.76 115.204 319.484 115.012 323.91 116.738C327.109 117.985 329.862 121.973 333.722 120.377C338.889 118.242 339.053 95.8788 334.682 93.0316C329.755 89.822 314.156 93 308 93L308 70C315.05 70 323.178 68.8979 330 70.9429C333.874 72.1042 336.988 76.1638 340.985 76.5347C349.239 77.3008 349.364 51.8177 345.258 47.7431C342.134 44.6441 334.945 46.9802 331 46.9992C316.958 47.067 303.058 48 289 48C285.279 48 275.574 46.2781 273.032 49.6034C269.335 54.4409 279.496 60.8891 279.941 66C281.655 85.6783 280 106.24 280 126C280 141.045 281.546 151.375 272.607 163.375C270.932 165.623 271.133 168.539 273.319 170.397C277.212 173.705 286.219 172 291 172L335 172C340.078 172 348.452 173.565 352.722 170.258C357.224 166.771 367.551 139.871 358.941 137.971C353.934 136.866 345.145 145.137 340 146.784C329.278 150.215 318.96 148 308 148M558 46.4283C542.368 48.6677 526.7 54.0735 515.015 65.0934C494.687 84.2632 490.795 120.38 505.711 144C523.503 172.174 559.565 177.797 590 174.155C597.711 173.232 607.804 173.549 614.891 170.146C620.16 167.616 618.059 161.697 618.004 157C617.854 144.345 617.853 131.655 618.004 119C618.061 114.201 620.711 107.157 614.941 104.742C609.564 102.491 584.774 101.483 582.662 108.108C581.043 113.185 588.325 116.518 589.566 121.004C591.018 126.248 592.398 146.311 588.397 150.258C583.342 155.245 569.271 153.196 563 152.27C557.844 151.509 553.514 149.738 549 147.124C516.133 128.089 521.814 75.0933 562 69.3001C570.509 68.0735 580.238 68.4959 588 72.3766C592.115 74.4336 598.734 81.1562 603.682 77.9676C608.022 75.1712 607.748 53.0906 603.682 50.1396C593.898 43.0378 569.356 44.8015 558 46.4283z"/>
<path style="fill:#8d6537; stroke:none;" d="M732 46L736 50L732 46z"/>
<path style="fill:#54391c; stroke:none;" d="M274 47L274 48L295 48L274 47z"/>
<path style="fill:#5c4d3e; stroke:none;" d="M295 47L295 48L313 48L295 47z"/>
<path style="fill:#2e1a06; stroke:none;" d="M408 129L435 129C438.415 129.002 442.715 128.387 445.157 131.318C448.758 135.637 456.303 152.301 455.071 157.896C454.377 161.049 450.615 162.07 449.662 165.1C448.813 167.798 450.515 169.983 453.059 170.682C462.694 173.329 476.006 171.004 486 171C489.325 170.999 494.892 171.82 496.353 167.856C498.182 162.891 492.014 160.322 489.173 157.671C483.345 152.234 481.048 144.243 478.316 137C470.702 116.815 462.101 96.9362 453.861 77C450.56 69.0131 448.189 56.7619 442.49 50.2284C437.993 45.0726 413.965 44.5759 408.148 48.0278C400.841 52.3642 411.097 57.6538 409.698 63.0046C405.373 79.5569 396.555 96.1082 390.178 112C384.663 125.746 380.315 142.737 371.945 154.985C369.301 158.853 359.74 162.928 363.046 168.772C364.829 171.923 368.842 171.952 372 171.996C378.952 172.093 399.534 175.381 404.242 169.566C408.661 164.109 399.562 161.77 399.252 156.956C398.671 147.928 406.648 138.025 408 129z"/>
<path style="fill:#54391b; stroke:none;" d="M695 47L695 48L732 48C722.202 43.8887 705.649 47 695 47z"/>
<path style="fill:#826037; stroke:none;" d="M271 50L271 54L272 54L271 50z"/>
<path style="fill:#4a3721; stroke:none;" d="M105 53C128.14 47.4908 157.202 52 181 52C175.538 49.7079 167.887 51 162 51L123 51C118.099 51 108.407 49.1009 105 53z"/>
<path style="fill:#5f3c17; stroke:none;" d="M186 51L186 153L187 153L187 82L186 51z"/>
<path style="fill:#4a3721; stroke:none;" d="M212 51L212 52L260 52C247.586 46.7907 225.526 51 212 51z"/>
<path style="fill:#654b26; stroke:none;" d="M338.667 51.3333L339.333 51.6667L338.667 51.3333z"/>
<path style="fill:#dbaf63; stroke:none;" d="M280 53L285 61L287 59L288 59L290 61L292 57L301 57L301 66C316.243 64.0736 328.696 63.3479 342 72L342 51C322.276 55.5088 300.212 53 280 53z"/>
<path style="fill:#8a7349; stroke:none;" d="M558 51L558 52L565 52L558 51z"/>
<path style="fill:#ead397; stroke:none;" d="M548 54L575 61L575 62L566 62L566 63C579.878 63 588.964 67.5939 601 74L601 54C583.156 52.5916 565.714 48.7149 548 54z"/>
<path style="fill:#ad9a6d; stroke:none;" d="M580 51L580 52L585 52L580 51z"/>
<path style="fill:#bd995d; stroke:none;" d="M804 51L805 72L806 72C806 66.5939 808.245 54.7095 804 51z"/>
<path style="fill:#4a3822; stroke:none;" d="M811 51L811 52L895 52L869 51L811 51z"/>
<path style="fill:#c49359; stroke:none;" d="M106 52C116.959 69.5235 128.18 83.414 129.907 105C133.668 152.024 86.6043 190.602 42 185.826C26.5196 184.169 15.5037 175.388 2 169C2 220.993 1.69707 268.828 29.3997 315C36.5528 326.922 47.1847 345.756 60 352C62.3075 347.309 70.6466 344.794 70.4931 339.166C70.3919 335.458 65.9442 331.707 63.804 329C58.0514 321.723 52.9835 314.07 48.4244 306C34.4509 281.266 28.1414 254.897 24.7153 227C23.6974 218.712 20.9948 201.895 24.6034 194.191C26.9468 189.189 39.1768 196.794 43 197.842C47.7022 199.13 53.9645 200.985 58.8302 199.683C62.2563 198.766 64.3414 195.713 68.0008 195.148C76.8352 193.786 86.2334 196.483 95 194.471C137.962 184.611 146.245 135.583 147 99L146 99L146 104L145 104C143.491 85.5221 132.025 73.4002 122 59C140.119 54.6863 162.384 58 181 58L181 52L106 52z"/>
<path style="fill:#95744d; stroke:none;" d="M181 52L181 58C163.025 58 139.211 53.9128 122 59C129.492 75.1617 142.435 84.9673 145 104L146 104C145.988 86.0423 135.394 73.5348 125 60L182 60L181 52z"/>
<path style="fill:#583612; stroke:none;" d="M206 52L206 150L207 150L207 82L206 52z"/>
<path style="fill:#af8a4b; stroke:none;" d="M277 52L277 53L337 53L318 52L277 52z"/>
<path style="fill:#baa371; stroke:none;" d="M411 52L411 53L438 53L411 52z"/>
<path style="fill:#6e5834; stroke:none;" d="M552.667 52.3333L553.333 52.6667L552.667 52.3333z"/>
<path style="fill:#a79060; stroke:none;" d="M554 52L554 53L557 53L554 52z"/>
<path style="fill:#b4a174; stroke:none;" d="M589 52L589 53L592 53L589 52z"/>
<path style="fill:#bead7b; stroke:none;" d="M623 52L623 53L656 53L623 52z"/>
<path style="fill:#bca77a; stroke:none;" d="M698 52L698 53L730 53L698 52z"/>
<path style="fill:#b69b6a; stroke:none;" d="M741 52L741 53L801 53L782 52L741 52z"/>
<path style="fill:#e3c181; stroke:none;" d="M743 53C747.49 59.5999 749.978 63.8603 750 72L757 72L756 69L760 70L756 67L757 64L765 64L765 69L766 69C772.255 57.6485 796.835 66.0904 805 71L805 52L743 53z"/>
<path style="fill:#c4955c; stroke:none;" d="M811 52L811 58L878 58L866.356 75L856 101C865.751 108.729 855.693 119.858 856.329 130C857.428 147.53 865.683 165.563 878.089 177.91C894.519 194.261 921.152 202.447 944 199.715C951.148 198.86 958.227 197.428 965 194.945C967.573 194.002 971.888 191.087 974.682 192.291C977.407 193.465 976.983 197.619 976.999 200C977.054 207.91 977.607 216.149 976.576 224C974.776 237.709 973.408 250.568 969.579 264C967.098 272.701 961.768 282.115 960.633 291C959.987 296.06 963.952 301.074 964.904 306C966.327 313.359 964.631 318.884 963 326L964 326C997.336 276.585 999 225.486 999 168C986.556 175.679 973.962 184.024 959 185.816C911.156 191.544 867.768 150.24 871.089 102C872.488 81.6895 883.896 67.8249 895 52L811 52z"/>
<path style="fill:#a57f52; stroke:none;" d="M211 53L211 60L253 60L276 58L276 57L212 58L211 53z"/>
<path style="fill:#e2c07a; stroke:none;" d="M414 53C417.074 62.9393 410.968 69.3435 410 79L423 78L426 69L432 80L433 80L433 76L439 81L440 81L441 76L446 75L445 79L448 82L445.281 69L438.301 54.0278L414 53z"/>
<path style="fill:#a6946c; stroke:none;" d="M596.667 53.3333L597.333 53.6667L596.667 53.3333z"/>
<path style="fill:#e9d092; stroke:none;" d="M625 53C631.339 62.748 631 70.6665 631 82L632 82L632 77L641 81L642 78L645 79L645 77L648 78C648 68.196 648.878 61.5182 654 53L625 53z"/>
<path style="fill:#e7ca8a; stroke:none;" d="M700 53L709 69L709 63C712.779 63.2762 715.503 63.9117 716 68L721 66L728 53L700 53z"/>
<path style="fill:#9a8353; stroke:none;" d="M544.667 54.3333L545.333 54.6667L544.667 54.3333z"/>
<path style="fill:#dfb974; stroke:none;" d="M503 106L515 106L515 105L511 104L511 103L521 104L522 104C527.238 78.691 549.267 62.0881 575 62C571.118 58.637 566.737 58.9896 562.039 57.5417C531.201 48.0356 503.085 75.1498 503 106z"/>
<path style="fill:#4b361b; stroke:none;" d="M601 54L600 75C603.832 71.6514 602.885 58.4919 601 54z"/>
<path style="fill:#917a51; stroke:none;" d="M727 54L728 55L727 54z"/>
<path style="fill:#a78f5b; stroke:none;" d="M541.667 55.3333L542.333 55.6667L541.667 55.3333z"/>
<path style="fill:#a17c51; stroke:none;" d="M730 60L742 60C737.97 55.3343 733.996 55.2794 730 60z"/>
<path style="fill:#8a764d; stroke:none;" d="M651 56L652 57L651 56z"/>
<path style="fill:#cf9a4c; stroke:none;" d="M292 57L290 61L286 59L286 121L289 123L291 124L303 122L303 110C312.014 110 324.599 108.559 331 116L332 116L332 97L303 98L303 75L303 66L301 57L292 57z"/>
<path style="fill:#e4e4e4; stroke:none;" d="M227 62L227 63L279 63C276.857 55.9671 271.347 60.7604 266 60.9807C253.303 61.504 239.415 59.0441 227 62z"/>
<path style="fill:#977851; stroke:none;" d="M811 58L811 60L876 60C865.556 70.6652 855.33 85.5272 855 101L856 101L866.356 76L878 58L811 58z"/>
<path style="fill:#ccc2b7; stroke:none;" d="M125 62C142.232 57.8974 163.299 61 181 61C170.02 56.3926 150.944 60 139 60C134.759 60 127.97 58.6014 125 62z"/>
<path style="fill:#989898; stroke:none;" d="M181 60L181 64L134 64L150 87L151 87C148.5 78.3422 142.23 71.2822 136 65L182 65L181 60z"/>
<path style="fill:#919192; stroke:none;" d="M211 60L211 65L280 65L280 64L212 64L211 60z"/>
<path style="fill:#c3c3c3; stroke:none;" d="M212 60L212 61L226 61L226 62L212 63L212 64L264 64C268.385 64 278.897 66.149 280 61L279 61L263 63L227 63L227 62L272 61L253 60L212 60z"/>
<path style="fill:#8d7950; stroke:none;" d="M649 60L649 63L650 63L649 60z"/>
<path style="fill:#e5e5e5; stroke:none;" d="M729 60L729 63L743 63L743 60L729 60z"/>
<path style="fill:#d6cfc6; stroke:none;" d="M811 60L811 61L876 61L855 60L811 60z"/>
<path style="fill:#dfdfdf; stroke:none;" d="M126 61C137.162 80.3328 146.982 92.7616 148.019 115.985C148.212 120.304 149.81 121.798 154 121L155 126L150 125L156 128C156.164 108.183 155.664 77.3152 134 67C136.749 62.0145 141.895 63 147 63L181 63L181 61L126 61z"/>
<path style="fill:#ededed; stroke:none;" d="M212 61L212 63L226 62L212 61z"/>
<path style="fill:#7e7367; stroke:none;" d="M743 61L744 62L743 61z"/>
<path style="fill:#dfdfdf; stroke:none;" d="M811 61L811 63C828.701 63 849.768 59.8973 867 64C858.288 76.5151 850.328 86.0392 846 101L854 101C857.655 85.2007 866.068 74.0644 875 61L811 61z"/>
<path style="fill:#63451f; stroke:none;" d="M630 62L630 133L631 133L631 84L630 62z"/>
<path style="fill:#8f8f91; stroke:none;" d="M728 62C729.104 67.1505 739.595 65 744 65L744 64L728 62z"/>
<path style="fill:#c5c5c4; stroke:none;" d="M743 62L729 63L729 64L743 62z"/>
<path style="fill:#c4c4c4; stroke:none;" d="M135 63L135 64L181 64C169.061 58.9902 148.003 63 135 63z"/>
<path style="fill:#885621; stroke:none;" d="M285 63L285 153L286 153L286 91L285 63z"/>
<path style="fill:#9e8557; stroke:none;" d="M565 63L565 64L579 64L565 63z"/>
<path style="fill:#d9ad62; stroke:none;" d="M709 63L709 69L706 68L706 95L708 93L709 93C724.307 104.417 723 74.3759 723 67L721 66L716 68C715.792 63.4961 713.09 63.1332 709 63z"/>
<path style="fill:#aa6e2e; stroke:none;" d="M749 63L749 128C749 141.709 750.619 154.047 743 166L794 166L813.49 164.972L822 143C802.928 153.854 788.545 154.723 767 152L767 118L766 118L755 116L751 120L750 120L750 81L749 63z"/>
<path style="fill:#c3c3c3; stroke:none;" d="M811 63L811 64L866 64L848 63L811 63z"/>
<path style="fill:#836130; stroke:none;" d="M315 64L315 65L322 65L315 64z"/>
<path style="fill:#765f39; stroke:none;" d="M560 64L560 65L563 65L560 64z"/>
<path style="fill:#826942; stroke:none;" d="M580.667 64.3333L581.333 64.6667L580.667 64.3333z"/>
<path style="fill:#cb9547; stroke:none;" d="M648 64L648 117L647 117L639 109L638 109L632 110C631.363 124.849 631.059 136.557 635 151C643.785 148.259 651.159 147.893 659 153L649.184 132L649 84L648 64z"/>
<path style="fill:#bd7d36; stroke:none;" d="M705 64L705 114C705 122.274 706.443 132.13 703.437 140C700.7 147.164 693.919 151.991 687 154.674C671.935 160.515 665.311 150.197 651.996 148.741C649.02 148.415 639.757 147.926 637.831 150.603C633.274 156.937 651.915 165.881 656 167.087C675.126 172.736 690.357 166.654 706 156L706 163L724 163L724 162L722 161C725.263 158.104 723.007 151.145 723 147C722.982 136.019 727.91 117.351 713 117L713 116L717 114L712 111L706 115C706 100.689 710.508 77.1271 705 64z"/>
<path style="fill:#d8ad68; stroke:none;" d="M757 64L756 67L760 70L756 69L757 72L750 72L750 99L751 99L752 90L756 92L753 94L765 89L765 95L766 95L765 64L757 64z"/>
<path style="fill:#b89860; stroke:none;" d="M773 64L773 65L778 65L773 64z"/>
<path style="fill:#86693d; stroke:none;" d="M778 64L778 65L785 65L778 64z"/>
<path style="fill:#9d9d9c; stroke:none;" d="M811 64L811 65L865 65C855.568 74.6307 846.381 87.1418 845 101L846 101L867 64L811 64z"/>
<path style="fill:#0f0e1e; stroke:none;" d="M136 65C142.703 74.5529 150.456 82.7097 154.452 94C168.386 133.372 148.579 172.838 116 195L117 207L122 206L123 207L120 216L125 215L124 219L128 219L126 215L131 215L133 219L138 217L138 216L136 215L138 213L136 209L133 212L128 209L130 206L130 205L124 207L126 203L122 201L123 192L128 190L129 194L125 193L131 197L135 193L136 196L137 202L133 202C133 199.181 131.579 199.366 129 200L134 207L133 204L139 208L139 204L141 206L145 205L148 208L149 197L153 198L148 196L148 192L146 189C149.649 189.096 161.908 200.275 160 203L163 206L159 205L159 206C162.734 209.104 163.449 211.225 163 216L166 217L163 218L165 224C170.084 224.082 172.871 226.479 175 231L188 228L189 219C185.457 216.74 177.734 210.939 185.11 207.742C190.512 205.401 199.196 207 205 207L250 207C256.861 207 267.242 202.862 271 210C273.08 208.695 273.941 207.819 272 206L272 197L279 210L285 211L285 204L290 204L291 208L286 210L299 208L297 204L301 209L295 209L296 212L272 217L276 221L275 224L281 222C281.552 226.243 281.98 229.895 286 232L286 228L292 231L290 226L302 236C313.996 235.176 323.232 221.596 334 215.89C353.899 205.344 379.055 203.485 401 205.95C407.285 206.656 419.304 206.592 423.397 212.144C427.327 217.475 425 229.626 425 236L431 235L434 238L432 240L438 250C433.087 253.234 437.215 258.443 440 262C436.685 265.797 440.11 275.55 444 278L448 289C453.783 292.206 453 298.124 453 304L454 304L453.981 229L444.623 209.317L455 207L484 207L481 200L492 202L477 196L479 191L483 189C478.792 186.714 479.859 184.146 481 180L484 181L485 178L486 178L486 182L491 180L491 181L488 184C493.239 182.535 494.355 178.857 496 174L500 176L499 172C501.993 171.936 503.346 172.054 504 169L509 171L508 166L516 162L516 174L520 171L518 169L522 170L520 177L527 182L532 182L532 180L534 180L535 181L535 182L535 183L531 185L524 183L520 186L522 181L518 182L520 179L520 178L506 187L507 184L505 188L518 185L519 189L515 189L520 197L521 197L522 197L528 196L529 196L530 193L537 197L537 186L539 186L540 189L537 193L544 192L545 192C548.565 187.044 549.327 181.651 543 179L545 184L540 181L540 180C547.937 170.427 522.615 161.07 517 155.907C496.946 137.465 495.098 114.277 500 89L497 91L494 89L491 82L490 82L486 88L480 89C483.507 84.4454 486.411 81.0439 486 75C489.753 72.5669 488.945 68.9804 488 65L484 69L483 69L481 67L474 73L475 76L470 77L473 82L477 81L476 84L469 80C469.978 83.4644 471.474 84.4825 475 85L477 88L477 89L468 89C466.862 92.3018 463.822 95.7374 463.485 99.1698C463.009 104.001 467.046 110.609 468.861 115C473.847 127.06 477.724 140.598 484.036 151.999C486.496 156.444 496.126 161.19 496.248 166.024C496.36 170.438 491.23 170.935 488 170.995C479.188 171.161 459.74 174.563 452.153 169.972C445.535 165.968 455.581 161.432 455.526 156.957C455.451 150.79 449.485 134.977 445.157 130.603C442.765 128.185 438.08 129 435 129L408 129C405.896 137.88 398.8 147.793 399.102 156.956C399.26 161.777 408.068 164.606 403.522 169.566C398.875 174.637 373.187 173.725 367.019 171.258C359.615 168.295 363.791 162.144 369 160L368 151L361 151C357.916 156.853 357.189 167.447 350.945 170.821C346.14 173.418 338.299 172 333 172L290 172C285.063 172 274.471 173.938 272.176 167.945C270.571 163.754 276.192 161.632 278.062 158.791C280.284 155.413 279.994 150.858 280 147C280.044 119.667 280 92.3332 280 65L211 65L211 146C221.252 147.296 233.928 149.88 244 146.78C249.807 144.993 261.42 135.435 266.941 136.887C270.901 137.928 270.542 141.917 269.647 145C267.708 151.683 264.475 165.068 258.775 169.397C254.375 172.738 245.239 171 240 171L193 171C188.244 171 176.86 173.073 173.662 168.682C170.568 164.433 177.129 161.486 179.157 158.741C181.605 155.425 181.947 150.966 181.996 147C182.332 119.676 182 92.3264 182 65L136 65z"/>
<path style="fill:#24213f; stroke:none;" d="M365 65L366 69L363 78L356 78L360 75L352 73L352 71L341.961 76.0841L330 70.6844L308 70L308 93C314.4 93 328.413 90.1286 333.852 93.0671C339.053 95.8771 339.101 117.084 333.722 119.914C330.349 121.688 327.655 117.872 324.83 116.738C320.224 114.888 312.968 115.103 308 115L308 148C319.294 148.001 329.93 150.327 341 146.784C345.689 145.283 354.445 137.467 358.941 138.612C364.494 140.027 361.761 147.308 361 151L362 152L368 151L369 159L370 159L391 105L387 107L384 103L379 105L382 102L380 99L374 100L375 96L370 91C374.476 91.3506 374.851 93.5534 377 97L380 94L380 93L380 92L378 92L380 86L376 86L377 83L383 90L385 90C389.792 82.3423 384.14 78.3325 382 71L374 74L374 73L378 69L365 65z"/>
<path style="fill:#7e653d; stroke:none;" d="M555.667 65.3333L556.333 65.6667L555.667 65.3333z"/>
<path style="fill:#9e8456; stroke:none;" d="M584.667 65.3333L585.333 65.6667L584.667 65.3333z"/>
<path style="fill:#1a182d; stroke:none;" d="M728 65L728 138L736 135L743.867 123.906L744 65L728 65z"/>
<path style="fill:#6d532e; stroke:none;" d="M767 65L767 66L772 66L767 65z"/>
<path style="fill:#171629; stroke:none;" d="M811 65C810.967 68.6901 811.092 74.1654 806.891 75.8248C802.899 77.4019 798.415 72.0822 794.83 70.8395C788.098 68.5057 779.059 70 772 70L772 93C777.989 93 795.362 89.8704 799.397 94.4375C802.476 97.9236 801 105.667 801 110L813 102.009L833 103.323L845 102C846.224 87.0328 856.906 76.6268 865 65L811 65z"/>
<path style="fill:#563b19; stroke:none;" d="M303 66L303 98L304 98L303 66z"/>
<path style="fill:#91784a; stroke:none;" d="M521 66L522 67L521 66z"/>
<path style="fill:#6b5331; stroke:none;" d="M552.667 66.3333L553.333 66.6667L552.667 66.3333z"/>
<path style="fill:#d19f53; stroke:none;" d="M766 66L766 95L765 95L765 89L753 94L756 92L752 90L750 120L751 120L755 116L766 120L767 110L795 114L795 98L767 98L766 66z"/>
<path style="fill:#8b6f44; stroke:none;" d="M796.667 66.3333L797.333 66.6667L796.667 66.3333z"/>
<path style="fill:#bf843b; stroke:none;" d="M188 69L187 112L190 115C198.375 114.121 204.882 114.018 205 124L206 124C206 113.095 210.487 89.0372 202 81L202 80C205.879 76.3054 198.531 75.7589 196 76L188 69z"/>
<path style="fill:#796037; stroke:none;" d="M426 69L426 71L428 69L426 69z"/>
<path style="fill:#2e1a06; stroke:none;" d="M427 70C420.286 80.592 412.254 98.4926 411 111L444 111C440.057 98.9012 435.406 79.5275 427 70z"/>
<path style="fill:#d7a75c; stroke:none;" d="M445 75L441 76L442 79L440 81L439 81L433 76C431.757 88.0695 440.307 100.671 444 112L410 112L423 78L422 77L409 78L395 117L396 117L398 115L397 112L407 110L408 114C415.21 112.661 435.261 109.329 438 118L455 111C455.654 114.054 457.007 113.936 460 114L459 111C464.06 106.394 452.03 86.001 450 80L448 82L445 79L445 75z"/>
<path style="fill:#dcb56e; stroke:none;" d="M632 77L631 100L632 100L632 94L639 97L644 93L645 93L647 96L648 96C648 90.2943 650.071 80.6571 645 77L645 79L642 78L641 81L632 77z"/>
<path style="fill:#d19e50; stroke:none;" d="M722 82C721.999 90.3789 718.787 97.8019 709 93L708 93L706 115L712 111L717 114L713 116L713 117L723 119C723 108.351 726.111 91.7977 722 82z"/>
<path style="fill:#433625; stroke:none;" d="M875.333 82.6667L875.667 83.3333L875.333 82.6667z"/>
<path style="fill:#18172b; stroke:none;" d="M426 83L418 106L436 106C434.884 99.5123 431.612 86.7192 426 83z"/>
<path style="fill:#4f3e28; stroke:none;" d="M874.333 85.6667L874.667 86.3333L874.333 85.6667z"/>
<path style="fill:#a3a3a2; stroke:none;" d="M151 87L153 95L154 95L151 87z"/>
<path style="fill:#775732; stroke:none;" d="M127.333 90.6667L127.667 91.3333L127.333 90.6667z"/>
<path style="fill:#7d603d; stroke:none;" d="M872 92L872 95L873 95L872 92z"/>
<path style="fill:#62616a; stroke:none;" d="M154.333 93.6667L154.667 94.3333L154.333 93.6667z"/>
<path style="fill:#d6a65a; stroke:none;" d="M644 93L639 97L632 94L631 116L632 116L632 110L638 109L639 109L647 117L648 117C648 109.913 650.668 97.3333 644 93z"/>
<path style="fill:#606065; stroke:none;" d="M846.333 93.6667L846.667 94.3333L846.333 93.6667z"/>
<path style="fill:#9b9b9b; stroke:none;" d="M154 95L155 102L156 102L154 95z"/>
<path style="fill:#876a3d; stroke:none;" d="M503 95L503 98L504 98L503 95z"/>
<path style="fill:#b18441; stroke:none;" d="M794 97L795 116L796 116C796 110.909 798.022 100.514 794 97z"/>
<path style="fill:#bcac98; stroke:none;" d="M854 98L854 101L855 101L854 98z"/>
<path style="fill:#71583a; stroke:none;" d="M871 98L871 102L872 102L871 98z"/>
<path style="fill:#936b3c; stroke:none;" d="M129 101L129 115L130 115L129 101z"/>
<path style="fill:#d7a75b; stroke:none;" d="M502 101L502 115L521 115L521 101L511 103L511 104L515 105L515 106L503 106L502 101z"/>
<path style="fill:#634823; stroke:none;" d="M522 101L522 105L523 105L522 101z"/>
<path style="fill:#796e62; stroke:none;" d="M845 101L845 102L854 102L845 101z"/>
<path style="fill:#a3a3a1; stroke:none;" d="M156 102L156 135L157 135C157.027 125.16 161.324 110.888 156 102z"/>
<path style="fill:#3a2d1d; stroke:none;" d="M871 102L871 114L872 114L871 102z"/>
<path style="fill:#ab9377; stroke:none;" d="M147 104L147 120L148 120L147 104z"/>
<path style="fill:#9a774e; stroke:none;" d="M146 105C146 141.261 134.477 182.627 95 194L95 195C125.919 193.584 142.899 156.026 146.282 130C147.22 122.777 148.86 111.817 146 105z"/>
<path style="fill:#583c19; stroke:none;" d="M816 105L816 106L824 106L816 105z"/>
<path style="fill:#7b5831; stroke:none;" d="M860 105L860 113L861 113L860 105z"/>
<path style="fill:#c68f45; stroke:none;" d="M521 106L521 115L503 115C503.011 131.588 510.741 150.116 527 157L525 154L533 150L532 147L540 149L544 152L526.374 131L521 106z"/>
<path style="fill:#cd984b; stroke:none;" d="M810 119C814.743 108.224 823.588 106.778 831 116L834 116C836.762 105.479 816.852 103.933 811.044 108.434C807.005 111.564 804.799 116.263 810 119z"/>
<path style="fill:#775425; stroke:none;" d="M825.667 106.333L826.333 106.667L825.667 106.333z"/>
<path style="fill:#88622c; stroke:none;" d="M839 106L839 107L855 107L855 112L856 112L856 106L839 106z"/>
<path style="fill:#bf7e36; stroke:none;" d="M840 107L840 135L847 135L845 121L853 122L853 118L845 118L845 110L855 111L855 107L840 107z"/>
<path style="fill:#805c2c; stroke:none;" d="M587 109L587 110L614 110L587 109z"/>
<path style="fill:#2e1a06; stroke:none;" d="M817.015 109.743C804.629 114.553 810.756 137.201 823.996 132.254C837.504 127.207 831.208 104.231 817.015 109.743z"/>
<path style="fill:#7c5525; stroke:none;" d="M303 110L303 111L318 111L303 110z"/>
<path style="fill:#ce974a; stroke:none;" d="M397 112L398 115L395 115L394 115C390.429 127.52 391.872 126.366 402 132C403.141 129.445 403.961 125.66 406.419 124.028C408.978 122.329 413.091 123 416 123C423.739 123 440.072 119.897 446.725 124.028C450.74 126.52 452.088 133.912 454 138L455 138L454 134L460 134L472 138L462 110L459 111L460 114L455 111L438 118C436.514 109.442 414.638 112.42 408 114L407 110L397 112z"/>
<path style="fill:#9d743b; stroke:none;" d="M410 110C414.866 115.568 436.642 112 444 112L444 111L410 110z"/>
<path style="fill:#c89146; stroke:none;" d="M589 110C598.022 123.829 596 137.987 596 154L610.566 153.782L613 142L614 110L589 110z"/>
<path style="fill:#7e5b2a; stroke:none;" d="M767 110L767 111L782 111L767 110z"/>
<path style="fill:#95662d; stroke:none;" d="M845 110L845 118L846 118L845 110z"/>
<path style="fill:#503110; stroke:none;" d="M303 111L303 152L304 152C304 140.304 307.511 121.75 303 111z"/>
<path style="fill:#714f22; stroke:none;" d="M324.667 111.333L325.333 111.667L324.667 111.333z"/>
<path style="fill:#462d10; stroke:none;" d="M613 111L613 166L614 166L614 129L613 111z"/>
<path style="fill:#765427; stroke:none;" d="M788.667 111.333L789.333 111.667L788.667 111.333z"/>
<path style="fill:#b4712a; stroke:none;" d="M187 112C187 126.863 192.461 154.97 179 165L179 166L235 166L256.298 164.972L266 141C251.1 149.262 237.505 155.45 220 152.385C216.62 151.793 210.116 151.916 207.603 149.397C199.447 141.219 215.122 113.579 196.005 113.813C193.928 113.839 191.969 114.434 190 115L187 112z"/>
<path style="fill:#4f4e59; stroke:none;" d="M158 114L158 121L159 121L158 114z"/>
<path style="fill:#18172c; stroke:none;" d="M818.228 115.043C812.399 118.391 816.055 130.275 822.945 126.928C830.154 123.427 825.48 110.879 818.228 115.043z"/>
<path style="fill:#c07d2f; stroke:none;" d="M833 114C831.538 117.565 832.101 121.477 830.427 124.999C821.275 144.253 811.4 122.634 806 115L805 115C805.004 120.295 804.71 126.519 808.43 130.787C821.583 145.878 838.911 129.678 836 114L835 114L834 116L833 114z"/>
<path style="fill:#9b7138; stroke:none;" d="M502 115L502 120L503 120L502 115z"/>
<path style="fill:#161426; stroke:none;" d="M772 115L772 148C784.793 148.264 807.512 153.182 816 140C806.184 138.101 800.44 129.609 800 120L772 115z"/>
<path style="fill:#49351e; stroke:none;" d="M128.333 117.667L128.667 118.333L128.333 117.667z"/>
<path style="fill:#c9c9c9; stroke:none;" d="M147 120C146.895 132.704 144.133 146.497 138.68 158C135.474 164.761 129.226 170.532 128 178C136.42 179.464 140.258 173.693 144.382 167C151.537 155.388 155.962 141.687 156 128L150 125L155 126L154 121L147 120z"/>
<path style="fill:#ad6f2e; stroke:none;" d="M287 120C282.185 136.289 289.04 150.562 279 166L330 166L349.49 164.972L358 143C339.415 154.459 324.17 154.675 303 152L303 122L291 124L289 123L287 120z"/>
<path style="fill:#b17b39; stroke:none;" d="M595 121L595 155L564 157.572L541 152L540 149L532 147L533 150L525 154C530.43 162.964 542.228 166.335 552 168.169C572.517 172.019 592.499 168.605 613 166L613 152L612 152L596 154L595 121z"/>
<path style="fill:#905e22; stroke:none;" d="M845 121L845 133L846 133L845 121z"/>
<path style="fill:#543d23; stroke:none;" d="M127.333 123.667L127.667 124.333L127.333 123.667z"/>
<path style="fill:#ad7b3b; stroke:none;" d="M405 123L405 124L448 124C436.774 119.29 417.219 123 405 123z"/>
<path style="fill:#7d5a2a; stroke:none;" d="M523.333 123.667L523.667 124.333L523.333 123.667z"/>
<path style="fill:#805c2a; stroke:none;" d="M503.333 124.667L503.667 125.333L503.333 124.667z"/>
<path style="fill:#7b4f1f; stroke:none;" d="M805.333 124.667L805.667 125.333L805.333 124.667z"/>
<path style="fill:#be7f39; stroke:none;" d="M390 125C386.168 138.404 380.271 156.388 369 165L369 166L398 166L398 165C387.528 155.004 401.833 144.146 401.049 133.148C400.823 129.983 392.448 127.854 390 125z"/>
<path style="fill:#57565d; stroke:none;" d="M157 126L157 131L158 131L157 126z"/>
<path style="fill:#0b0a12; stroke:none;" d="M742 127L736 135C727.421 138.386 728 142.436 728 151L735 149L734 145L742 147L744 127L742 127z"/>
<path style="fill:#96744c; stroke:none;" d="M850 127L850 131L851 131L851 128L855 128C855.174 191.234 924.77 213.879 975 193C975 211.393 975.63 230.995 971.252 249C968.15 261.756 957.885 280.354 959 293L960 293C968.625 267.507 976.989 243.271 977 216C977.002 211.406 979.503 194.879 975.397 192.082C972.338 189.998 965.98 194.262 963 195.305C952.935 198.827 942.604 200.05 932 199.999C890.317 199.798 860.933 166.03 856 127L850 127z"/>
<path style="fill:#765733; stroke:none;" d="M126.333 128.667L126.667 129.333L126.333 128.667z"/>
<path style="fill:#d8d8d8; stroke:none;" d="M851 128C851.672 133.679 852.958 137.118 847 140C848.309 156.025 859.244 178.896 875 185L874 179L870 180L870 179L875 178C866.002 160.561 856.733 148.294 854 128L851 128z"/>
<path style="fill:#bbac99; stroke:none;" d="M854 128L854 132L855 132L854 128z"/>
<path style="fill:#867c72; stroke:none;" d="M852 133L852 137L853 137L852 133z"/>
<path style="fill:#c2863e; stroke:none;" d="M454 134L460 155L483 160L473 137L460 134L454 134z"/>
<path style="fill:#58575c; stroke:none;" d="M156 135L156 139L157 139L156 135z"/>
<path style="fill:#969696; stroke:none;" d="M155 136L155 140L156 140L155 136z"/>
<path style="fill:#828281; stroke:none;" d="M154 140C152.956 162.852 132.838 183.5 114 194L114 195C130.157 191.874 144.746 172.206 150.843 158C153.111 152.716 156.34 145.628 154 140z"/>
<path style="fill:#54535c; stroke:none;" d="M155 140L155 144L156 144L155 140z"/>
<path style="fill:#a6a6a5; stroke:none;" d="M845 140L849 155L850 155L847 140L845 140z"/>
<path style="fill:#1b1930; stroke:none;" d="M734 145L735 149L728 151C728.377 158.25 735.767 167.615 742.258 158.786C744.964 155.106 744 149.304 744 145L742 147L734 145z"/>
<path style="fill:#5b5b61; stroke:none;" d="M846 146L846 149L847 149L846 146z"/>
<path style="fill:#242140; stroke:none;" d="M491 150L492 158L499 160L501 160L502 156L498 147L491 150z"/>
<path style="fill:#523412; stroke:none;" d="M220 152L220 153L241 153L220 152z"/>
<path style="fill:#ac7030; stroke:none;" d="M462 154L457 165L457 166L490 166C484.109 158.792 470.664 157.536 462 154z"/>
<path style="fill:#565560; stroke:none;" d="M849.333 155.667L849.667 156.333L849.333 155.667z"/>
<path style="fill:#9e9e9d; stroke:none;" d="M850 155C853.661 176.193 883.451 202.013 905 203L905 202C889.206 198.344 872.651 186.417 862.465 174C857.654 168.136 854.964 160.496 850 155z"/>
<path style="fill:#734b1e; stroke:none;" d="M670 156L670 157L680 157L670 156z"/>
<path style="fill:#694219; stroke:none;" d="M705 156L705 167C711.17 167 726.83 169.772 731 165L706 166L705 156z"/>
<path style="fill:#613d18; stroke:none;" d="M461 157L461 161L462 161L461 157z"/>
<path style="fill:#a86c2d; stroke:none;" d="M724 159C722.61 161.316 720.872 161.374 724 162L724 163C718.604 162.999 708.061 159.832 706 166L729 166L724 159z"/>
<path style="fill:#663e16; stroke:none;" d="M177 166L177 167L257 167L232 166L177 166z"/>
<path style="fill:#84511e; stroke:none;" d="M277 166L277 167L350 167L327 166L277 166z"/>
<path style="fill:#6c451c; stroke:none;" d="M368 165C372.694 170.372 392.936 167 400 167L400 166L368 165z"/>
<path style="fill:#6b451b; stroke:none;" d="M455 166L455 167L492 167C484.745 162.805 463.545 165.061 455 166z"/>
<path style="fill:#855320; stroke:none;" d="M740 166L740 167L814 167L791 166L740 166z"/>
<path style="fill:#6a4d2b; stroke:none;" d="M1 168L1 225L2 225C2 206.994 -1.17295 185.527 3 168L1 168z"/>
<path style="fill:#b7b7b7; stroke:none;" d="M127 175C119.939 183.096 110.476 190.976 100 194L100 195C114.172 195 124.753 190.432 134 179L128 178L127 175z"/>
<path style="fill:#c9cbcc; stroke:none;" d="M870 179L870 180L874 179L874 186C896.368 200.734 916.307 204.854 943 206C938.05 200.12 929.035 202.153 922 200.916C909.71 198.754 897.134 194.218 887 186.841C881.431 182.787 877.398 176.878 870 179z"/>
<path style="fill:#473622; stroke:none;" d="M27.6667 182.333L28.3333 182.667L27.6667 182.333z"/>
<path style="fill:#644d30; stroke:none;" d="M30.6667 183.333L31.3333 183.667L30.6667 183.333z"/>
<path style="fill:#7f5f3a; stroke:none;" d="M968.667 183.333L969.333 183.667L968.667 183.333z"/>
<path style="fill:#4b3923; stroke:none;" d="M39 185L39 186L43 186L39 185z"/>
<path style="fill:#5f4629; stroke:none;" d="M60 185L60 186L63 186L60 185z"/>
<path style="fill:#533f27; stroke:none;" d="M936 185L936 186L940 186L936 185z"/>
<path style="fill:#86633a; stroke:none;" d="M957 185L957 186L962 186L957 185z"/>
<path style="fill:#030215; stroke:none;" d="M146 189L148 192L148 196L153 198L149 197L148 208L145 205L139 204L139 208L133 204L134 207L129 200C132.047 199.492 133.647 199.413 133 202L137 202L136 196L136 195L135 193L131 197L125 193L129 194L128 190L123 192L122 201L126 203L124 207L130 205L130 206L128 209L133 212L136 209L138 213L138 214L138 216L138 217L133 219L131 215L126 215L128 219L124 219L125 215L120 216L123 207L122 206L117 204C103.18 208.117 106 223.556 106 235L106 328C120.704 328.631 135.524 332.712 150 327.561C155.411 325.636 170.107 315.018 174.927 317.137C178.808 318.843 177.957 322.841 176.792 326C173.919 333.786 170.798 350.337 163.867 355.258C159.328 358.48 151.274 357 146 357L101 357C116.539 375.801 148.712 381.106 171 386.829C200.908 394.508 231.324 393 262 393L389 393L444 393C455.586 393 466.743 391.919 477 398.399C488.512 405.672 494.788 419.549 499 432L502 432C507.1 416.238 515.727 400.491 532 394.389C538.169 392.076 562.654 396.282 564 390L563 390L561 392L560 387L552 386L550 387L547 383L543 384L544 378L552 377L550 373L554 373L553 370C556.383 370.831 558.475 369.05 560 366C556.126 366.223 537.455 372.375 545 374L540 382L535 382L534 381L536 376L532 376L533 372L538 373L538 368L534 357L466 357C460.642 357 446.986 359.47 443.89 353.853C441.263 349.084 450.768 344.422 452.197 339.996C455.851 328.673 454.659 313.632 453.285 302C452.669 296.777 453.965 290.99 448 289L444 278C440.655 274.819 436.863 266.212 440 262C437.613 257.877 434.233 254.052 438 250C435.14 245.852 432.582 243.211 434 238L431 235L425 236C422.029 250.671 399.616 231.292 389 231.015C359.426 230.243 329.502 244.646 328.039 278C326.67 309.214 350.87 340.739 385 336.715C389.777 336.151 402.779 337.439 405.972 333.397C407.91 330.943 407 325.914 407 323C407 314.294 409.451 301.17 406.258 293.015C404.519 288.574 393.164 282.445 401.063 278.028C405.029 275.81 411.608 277 416 277C421.811 277 434.319 274.651 438.639 279.318C441.495 282.403 439.124 287.304 439.015 291C438.704 301.648 439 312.348 439 323C439 329.947 442.244 347.265 438.357 352.852C435.14 357.477 424.178 357.529 419 358.271C400.349 360.943 381.631 362.404 363 359.285C322.364 352.484 289.009 318.999 293.17 276C294.651 260.697 301.638 249.452 308 236L302 236L290 226L292 231L286 228L286 232L281 222L275 224L276 221L272 217L296 212L295 209L301 209L297 204L299 208L286 210L287 207L291 208L290 204L285 204L285 211L279 210C279.495 205.095 275.277 200.482 272 197L272 206C273.2 208.782 271.306 211.013 271.058 214.039C270.605 219.573 274.267 238.535 266.941 240.248C262.518 241.283 258.09 235.093 254 233.804C244.65 230.858 233.663 232 224 232L224 263C231.305 263 238.706 263.351 246 262.957C249.137 262.787 252.948 261.041 255.852 262.846C260.978 266.033 261.524 291.122 255.853 293.914C251.828 295.895 248.375 290.573 244.961 289.264C238.633 286.837 230.653 288 224 288L224 330C238.245 330.612 253.244 333.221 267 328.308C272.013 326.518 283.089 316.577 287.851 318.407C291.905 319.964 290.294 324.976 289.41 328C287.396 334.89 284.36 352.091 277.867 355.821C272.619 358.835 262.881 357 257 357L205 357C199.5 357 187.728 359.201 183.323 355.397C178.964 351.632 191.963 338.959 191.999 332C192.147 303.668 192 275.332 192 247C192 239.864 195.323 222.777 187 220L188 228L175 231C173.55 225.88 170.357 223.321 165 224L166 217L163 216C163.847 211.129 163.493 208.523 159 206L159 205L163 206L160 203L162 201L146 189z"/>
<path style="fill:#98754c; stroke:none;" d="M71 339L72 339C71.052 332.467 64.9334 327.207 61.152 322C54.6242 313.012 48.3986 303.159 43.8611 293C29.3407 260.489 26 228.173 26 193C37.2685 198.359 48.3974 201.965 61 202L61 200C52.2415 199.994 44.1068 198.347 36 194.988C33.449 193.932 28.3759 190.368 25.6034 192.133C23.0239 193.775 24.0002 199.447 24 202C23.9994 211.06 23.87 219.995 24.8341 229C29.4778 272.375 46.2455 303.958 71 339z"/>
<path style="fill:#a49a8d; stroke:none;" d="M26 193L26 226L27 226L28 193L26 193z"/>
<path style="fill:#a79784; stroke:none;" d="M973 193L974 222L975 222C975 215.381 978.075 197.434 973 193z"/>
<path style="fill:#ababab; stroke:none;" d="M27 194C27 233.605 29.6336 269.688 49.7191 305C55.1857 314.611 62.2038 329.333 72 335C70.9638 327.899 65.1465 321.978 61.4252 316C55.4143 306.345 50.5572 295.752 46.8619 285C37.6827 258.292 39 230.805 39 203L67 207C60.3706 200.953 52.3525 201.734 44 199.764C38.1268 198.379 32.8565 195.391 27 194z"/>
<path style="fill:#b6b6b6; stroke:none;" d="M940 202C944.846 209.456 954.815 203.153 962 203C962 224.644 963.458 246.753 958.651 268C957.114 274.789 951.081 285.97 959 290L971.69 248L974 194L940 202z"/>
<path style="fill:#472e13; stroke:none;" d="M64 195L64 196L116 196L99 195L64 195z"/>
<path style="fill:#2e1a06; stroke:none;" d="M106 328L106 267C106 251.014 102.989 231.611 106.39 216C107.839 209.353 116.654 206.481 117.418 200.914C118.192 195.282 110.469 196.002 107 196L74 196C70.6541 196 64.1176 194.837 62.0718 198.317C59.0809 203.404 67.6716 206.731 69.8519 210.055C72.5732 214.203 72 219.274 72 224C72 256.646 72.6283 289.361 71.9861 322C71.8709 327.855 73.2389 335.811 69.9907 340.957C67.9459 344.196 64.0342 345.322 61.9931 348.39C60.6818 350.361 60.359 353.61 62.4074 355.227C66.7494 358.654 81.4826 356 87 356C105.296 356 123.639 357 142 357C148.115 357 158.418 358.95 163.867 355.821C170.835 351.819 175.084 332.437 177.556 325C178.624 321.785 178.835 317.962 174.941 316.647C168.898 314.608 154.455 325.781 148 327.91C133.992 332.531 120.129 328.292 106 328z"/>
<path style="fill:#a06225; stroke:none;" d="M67 200L67 201C83.0819 209.418 78 235.886 78 251L101 250C101 234.624 95.681 209.537 112 201C100.299 196.09 79.742 200 67 200z"/>
<path style="fill:#8a8a8a; stroke:none;" d="M39 203C39 237.76 38.6571 269.745 53.5255 302C58.0454 311.805 63.5482 324.015 72 331C66.8644 315.511 54.7951 301.853 49.054 286C39.3675 259.252 40 232.003 40 204L69 208L39 203z"/>
<path style="fill:#7c7268; stroke:none;" d="M903 203L903 204L924 204L903 203z"/>
<path style="fill:#8e8e8e; stroke:none;" d="M941 206L941 207L961 204L961 249L962 249L962 203L941 206z"/>
<path style="fill:#57565a; stroke:none;" d="M40 204L40 249L41 249C41 236.258 44.91 215.701 40 204z"/>
<path style="fill:#060515; stroke:none;" d="M41 204C41 237.73 40.4344 269.59 54.6952 301C58.8501 310.151 63.9068 321.754 72 328L72 242C72 234.375 75.2893 216.419 70.2577 210.318C66.3465 205.576 47.5299 206.074 41 204z"/>
<path style="fill:#2e1a06; stroke:none;" d="M945 350C952.489 340.975 965.243 344 976 344L976 409L985 409L985 334L960 334C972.775 304.007 957.303 282.344 929 270.15C916.934 264.952 895.112 258.059 892.573 243C890.138 228.555 911.15 227.941 920 229.054C929.877 230.296 939.218 241.749 947.981 241.704C955.595 241.666 954.117 218.349 952.682 213.055C950.689 205.703 932.366 204.08 926 204.004C902.189 203.719 873.649 203.278 861.134 228C843.888 262.068 878.99 282.157 904 294.258C913.425 298.819 928.85 304.876 929.891 317C930.648 325.807 923.566 330.293 916 332.56C900.831 337.105 886.346 333.335 873 325.396C868.969 322.998 861.341 315.775 856.319 319.032C852.945 321.221 854.711 325.896 855.335 329C856.872 336.65 856.583 351.674 865.005 354.867C883.475 361.868 904.943 361.854 924 357.346C931.205 355.641 937.793 350.907 945 350z"/>
<path style="fill:#4b4b57; stroke:none;" d="M957.667 204.333L958.333 204.667L957.667 204.333z"/>
<path style="fill:#090816; stroke:none;" d="M959 204L944 207L944 208C955.259 209.79 953.001 220.031 953 229C953 232.712 953.957 238.898 949.852 240.914C945.233 243.181 938.827 235.801 935 233.82C926.443 229.392 913.533 225.823 904 228.916C890.88 233.173 889.115 245.773 899.043 254.79C908.435 263.32 921.877 266.795 933 272.37C939.869 275.813 945.859 281.254 953 284C958.469 264.584 960 246.088 960 226C960 219.314 961.599 210.194 959 204z"/>
<path style="fill:#59595b; stroke:none;" d="M960 204L960 249L961 249C961 236.258 964.91 215.701 960 204z"/>
<path style="fill:#2e1a06; stroke:none;" d="M224 330L224 288C230.399 288 237.884 286.971 243.985 289.264C247.84 290.713 251.257 296.159 255.853 294.377C261.279 292.274 260.959 266.118 256.682 262.758C253.542 260.291 249.456 262.576 246 262.896C238.772 263.565 231.258 263 224 263L224 232C233.354 232 243.949 230.952 253 233.804C257.431 235.2 260.45 239.873 264.995 240.623C274.279 242.156 271.011 220.447 271 215C270.995 212.392 271.481 208.747 269.397 206.746C265.839 203.331 255.626 206.993 251 207L200 207C195.614 207 184.95 205.066 182.198 209.434C178.797 214.831 191.467 221.645 191.945 228C193.802 252.697 192 278.227 192 303C192 313.357 195.29 330.631 190.543 339.996C188.454 344.118 177.175 349.911 182.604 355.397C186.534 359.368 199.759 357 205 357L258 357C263.656 357 273.772 358.923 278.722 355.821C284.814 352.004 288.203 333.764 289.985 327C290.777 323.993 291.82 319.129 287.852 317.851C282.346 316.078 271.567 326.32 266 328.308C252.362 333.178 238.082 330.291 224 330M371 205.428C356.147 207.555 340.905 210.905 328 218.811C288.818 242.816 279.824 303.316 314.015 335.91C338.289 359.052 371.974 363.595 404 360.166C413.255 359.175 428.765 359.817 436.852 354.973C441.725 352.054 439.008 343.685 439 339C438.976 324.001 438.923 308.999 439.001 294C439.027 288.988 443.161 280.12 436.941 277.603C429.086 274.425 415.445 276.943 407 277.001C403.897 277.022 399.706 276.843 398.086 280.148C395.446 285.538 405.233 290.15 406.566 295.001C408.931 303.603 407.004 315.097 407 324C406.999 326.889 407.65 331.137 405.397 333.397C400.875 337.93 382.002 337.503 376 336.561C369.83 335.592 363.531 333.584 358 330.68C317.131 309.223 317.475 241.986 368 232.311C380.086 229.997 392.71 230.04 404 235.323C408.472 237.416 416.634 245.832 421.772 242.953C427.603 239.685 427.105 213.477 421.852 209.938C410.683 202.414 383.802 203.595 371 205.428M485 288C491.434 288 498.853 287.01 505 289.264C508.75 290.639 512.624 295.672 516.941 294.338C523.284 292.379 523.284 266.383 518.682 262.608C515.513 260.009 511.477 262.481 508 262.871C500.495 263.713 492.551 263 485 263C485 256.892 481.815 236.7 487.318 233.028C498.387 225.642 515.537 235.797 524.999 239.972C528.154 241.364 531.51 240.321 532.566 236.891C534.259 231.395 535.336 210.452 530.682 206.607C526.823 203.419 515.96 207 511 207L464 207C459.07 207 449.559 205.192 445.318 208.028C443.168 209.465 442.739 212.464 444.032 214.621C448.564 222.177 453.979 222.714 454 233C454.062 263.964 454.744 295.046 453.985 326C453.864 330.967 453.527 337.611 450.91 341.957C448.687 345.651 439.717 349.421 443.762 354.682C448.031 360.235 467.519 357 474 357L522 357C527.142 357 536.455 358.772 540.722 355.397C544.903 352.089 546.054 343.838 547.667 339C549.22 334.341 554.61 325.006 551.933 320.229C548.044 313.29 538.968 322.909 535 325.096C523.778 331.282 512.403 331.059 500 330.999C496.192 330.981 489.512 331.364 486.603 328.4C484.03 325.779 485 320.333 485 317L485 288z"/>
<path style="fill:#766c62; stroke:none;" d="M936.667 205.333L937.333 205.667L936.667 205.333z"/>
<path style="fill:#2e1a06; stroke:none;" d="M593 258C616.806 283.864 637.44 313.406 659.211 341C665.479 348.944 680.012 365.738 691.956 363.589C700.462 362.058 697 340.323 697 334L697 237C697 232.061 696.687 227.254 699.653 223.005C702.268 219.258 710.541 215.72 708.377 210.147C706.842 206.193 701.373 207.002 698 207C687.698 206.995 677.292 206.573 667 207.019C663.687 207.163 658.731 208.522 659.752 212.961C660.892 217.922 668.018 220.784 670.005 226C673.233 234.472 671 247.013 671 256L671 304C652.572 281.139 634.375 258.071 616.211 235C611.544 229.073 606.433 223.258 602.224 217C600.425 214.326 599.496 209.975 596.698 208.179C590.225 204.025 574.549 207 567 207C564.086 207 559.878 206.315 557.318 208.028C555.133 209.489 554.754 212.545 556.032 214.737C560.43 222.277 566.944 222.583 566.999 233C567.166 264.661 567.152 296.339 566.999 328C566.976 332.803 566.75 337.994 563.57 341.896C560.829 345.259 552.264 348.227 555.223 353.856C557.24 357.694 562.381 356.998 566 357C575.989 357.004 586.015 357.251 596 356.985C599.717 356.887 605.553 356.205 604.623 351.022C603.641 345.538 596.005 342.626 593.97 337C590.763 328.131 593 315.361 593 306L593 258M714.152 208.028C706.572 212.59 721.136 221.427 721.867 227C724.482 246.948 722 268.868 722 289C722 303.256 725.322 322.298 721.362 336C719.809 341.374 709.061 348.362 712.047 353.853C715.331 359.89 732.131 357 738 357C764.89 357 792.95 358.884 817 344.547C854.621 322.12 867.142 259.45 832.985 228.174C810.499 207.584 782.645 207 754 207C744.134 207 722.637 202.92 714.152 208.028z"/>
<path style="fill:#7f643d; stroke:none;" d="M908 208L908 209L924 209L908 208z"/>
<path style="fill:#e1c388; stroke:none;" d="M865 235L879 240.833L885 240.333L886 246L887 246C887.059 225.564 905.623 223 922 223L922 222L918 222L918 221L922 215L915 214L915 210L924 210C906.072 202.477 867.259 213.061 865 235z"/>
<path style="fill:#cba466; stroke:none;" d="M915 210L915 214L922 215L918 221L918 222L922 222L922 223L920 223L920 224C930.638 225.066 939.361 231.31 948 237L948 213L915 210z"/>
<path style="fill:#604825; stroke:none;" d="M265 210L266 236L267 236C267 229.83 269.772 214.17 265 210z"/>
<path style="fill:#af9961; stroke:none;" d="M371 210L371 211L396 211L371 210z"/>
<path style="fill:#efe09c; stroke:none;" d="M449 212L449 213C463.648 221.651 456.073 235.713 460 249C464.538 249.13 465.735 252.002 467 256L471 255L479 259L479 268L480 268C480 258.974 476.057 237.882 481.028 230.314C483.456 226.617 490.16 227.019 494 227.001C507.529 226.936 516.597 228.496 528 236L528 210C504.79 217.242 473.302 212 449 212z"/>
<path style="fill:#836b44; stroke:none;" d="M893 210L893 211L896 211L893 210z"/>
<path style="fill:#4d3416; stroke:none;" d="M186 213C208.845 207.561 237.507 212 261 212C255.784 209.811 248.619 211 243 211L204 211C199.099 211 189.407 209.101 186 213z"/>
<path style="fill:#977845; stroke:none;" d="M261 211L261 212L264 212L261 211z"/>
<path style="fill:#dcb56e; stroke:none;" d="M246 213L239 225L234 225L234 226L242 226L241 221L254 222L244 226L244 227C252.861 227.705 258.813 231.11 266 236L266 211L246 213z"/>
<path style="fill:#b69f62; stroke:none;" d="M366 211L366 212L370 212L366 211z"/>
<path style="fill:#e1bf77; stroke:none;" d="M316 236L332 236L331 240C342.358 244.701 356.765 229.666 369 226.888C388.906 222.369 401.704 229.434 419 238L419 214C386.521 209.806 337.948 204.862 316 236z"/>
<path style="fill:#927e52; stroke:none;" d="M401 211L401 212L405 212L401 211z"/>
<path style="fill:#534025; stroke:none;" d="M448 213C470.549 207.631 498.811 212 522 212C516.784 209.811 509.619 211 504 211L466 211C461.099 211 451.407 209.101 448 213z"/>
<path style="fill:#9c8e5d; stroke:none;" d="M522 211L522 212L525 212L522 211z"/>
<path style="fill:#534026; stroke:none;" d="M560 213L594 212C588.33 209.621 564.07 208.342 560 213z"/>
<path style="fill:#523f24; stroke:none;" d="M664 213C675.346 210.299 692.654 210.299 704 213C701.724 210.396 698.317 211.001 695 211C688.118 210.997 668.598 207.738 664 213z"/>
<path style="fill:#523e23; stroke:none;" d="M717 213C736.3 208.405 760.164 212 780 212C767.593 206.794 745.515 211 732 211C727.589 211 720.086 209.469 717 213z"/>
<path style="fill:#81633a; stroke:none;" d="M940.667 211.333L941.333 211.667L940.667 211.333z"/>
<path style="fill:#d5a659; stroke:none;" d="M187 212L187 213C197.883 218.693 198 230.114 198 241L207 239C210.08 242.452 213.899 239.078 217 237L217 244L218 244C218 240.106 216.8 233.705 219.028 230.314C221.295 226.863 227.38 227.047 231 227.004C239.283 226.905 247.17 227.442 254 222L241 221L242 226L234 226L234 225L239 225L246 213L260 213L237 212L187 212z"/>
<path style="fill:#f7f0b5; stroke:none;" d="M561 212L561 213C569.547 217.471 572.809 225.759 573 235L577 234L599 245L611 243L619 248L599.479 222L592.585 212.603L561 212z"/>
<path style="fill:#f7f0b2; stroke:none;" d="M665 212L665 213C672.693 217.027 675.925 224.606 676 233C682.381 231.481 689.381 230.984 690 239L691 239C691.001 228.28 693.467 219.093 703 213C692.964 208.789 675.911 212 665 212z"/>
<path style="fill:#ecdca8; stroke:none;" d="M718 212L718 213C723.297 216.812 726.642 221.384 727 228C734.525 228.001 741.677 229.172 747 235L748 235L748 228L780 226L780 225L777 225L777 224C790.969 223.884 804.579 219.532 818 225C813.451 218.055 800.698 215.576 793 214.004C768.976 209.098 742.453 212 718 212z"/>
<path style="fill:#5a462d; stroke:none;" d="M784 212L784 213L789 213L784 212z"/>
<path style="fill:#826a3d; stroke:none;" d="M354 213L354 214L357 214L354 213z"/>
<path style="fill:#948054; stroke:none;" d="M415 213L415 214L418 214L415 213z"/>
<path style="fill:#998665; stroke:none;" d="M790 213L790 214L793 214L790 213z"/>
<path style="fill:#583e1e; stroke:none;" d="M948 213L947 238C951.102 234.416 950.041 217.865 948 213z"/>
<path style="fill:#b19d68; stroke:none;" d="M419 214L419 239L420 239L419 214z"/>
<path style="fill:#8c7d5f; stroke:none;" d="M564 214L565 215L564 214z"/>
<path style="fill:#897954; stroke:none;" d="M668 214L669 215L668 214z"/>
<path style="fill:#7d6b4c; stroke:none;" d="M795.667 214.333L796.333 214.667L795.667 214.333z"/>
<path style="fill:#6c583a; stroke:none;" d="M799.667 215.333L800.333 215.667L799.667 215.333z"/>
<path style="fill:#857754; stroke:none;" d="M595 216L596 217L595 216z"/>
<path style="fill:#948661; stroke:none;" d="M697 216L698 217L697 216z"/>
<path style="fill:#705d3e; stroke:none;" d="M802.667 216.333L803.333 216.667L802.667 216.333z"/>
<path style="fill:#6b3c13; stroke:none;" d="M77 217L77 333L78 333L78 252L77 217z"/>
<path style="fill:#847555; stroke:none;" d="M567 217L568 218L567 217z"/>
<path style="fill:#918361; stroke:none;" d="M671 217L672 218L671 217z"/>
<path style="fill:#a2976c; stroke:none;" d="M599 222L600 223L599 222z"/>
<path style="fill:#a3946a; stroke:none;" d="M726 222L726 228L727 228L726 222z"/>
<path style="fill:#e2c180; stroke:none;" d="M777 224L777 225L780 225L780 226L778 226L778 227C796.374 227.84 810.181 241.048 819 256L820 256L816 248L816 247L817 243L823 248L827 248L827 243C832.298 242.88 835.308 242.83 839 247C839.767 241.709 833.544 235.688 829.911 232.289C814.01 217.418 796.327 223.601 777 224z"/>
<path style="fill:#b9aa77; stroke:none;" d="M458 223L458 226L459 226L458 223z"/>
<path style="fill:#968867; stroke:none;" d="M571.333 223.667L571.667 224.333L571.333 223.667z"/>
<path style="fill:#4a3319; stroke:none;" d="M906 223L906 224L920 224L906 223z"/>
<path style="fill:#80643d; stroke:none;" d="M923.667 224.333L924.333 224.667L923.667 224.333z"/>
<path style="fill:#b49b60; stroke:none;" d="M377 225L377 226L391 226L377 225z"/>
<path style="fill:#b5a978; stroke:none;" d="M675.333 225.667L675.667 226.333L675.333 225.667z"/>
<path style="fill:#847551; stroke:none;" d="M692.333 225.667L692.667 226.333L692.333 225.667z"/>
<path style="fill:#c6b280; stroke:none;" d="M761 225L761 226L772 226L761 225z"/>
<path style="fill:#866a47; stroke:none;" d="M998 225L998 231L999 231L998 225z"/>
<path style="fill:#785f33; stroke:none;" d="M370 226L370 227L375 227L370 226z"/>
<path style="fill:#745c35; stroke:none;" d="M392 226L392 227L395 227L392 226z"/>
<path style="fill:#61421b; stroke:none;" d="M458 226L458 333L459 333L459 259L458 226z"/>
<path style="fill:#7e6c4b; stroke:none;" d="M755 226L755 227L760 227L755 226z"/>
<path style="fill:#2e1a06; stroke:none;" d="M749 333C767.319 337.847 792.313 334.73 806.999 321.815C828.586 302.831 829.546 261.192 808.985 241.039C797.314 229.599 780.995 225.624 765 226.015C761.02 226.112 751.609 226.095 749.603 230.303C747.652 234.399 749 241.542 749 246L749 282L749 333z"/>
<path style="fill:#786341; stroke:none;" d="M775 226L775 227L778 227L775 226z"/>
<path style="fill:#7a5d31; stroke:none;" d="M243 227L243 228L249 228L243 227z"/>
<path style="fill:#735b33; stroke:none;" d="M366 227L366 228L369 228L366 227z"/>
<path style="fill:#876e42; stroke:none;" d="M397.667 227.333L398.333 227.667L397.667 227.333z"/>
<path style="fill:#6d5a39; stroke:none;" d="M486 227L486 228L491 228L486 227z"/>
<path style="fill:#7a6742; stroke:none;" d="M507 227L507 228L510 228L507 227z"/>
<path style="fill:#9a8d6a; stroke:none;" d="M603 227L604 228L603 227z"/>
<path style="fill:#573f1f; stroke:none;" d="M675 227L675 318L676 318L676 255L675 227z"/>
<path style="fill:#7c6a49; stroke:none;" d="M751 227L751 228L754 228L751 227z"/>
<path style="fill:#6e5938; stroke:none;" d="M781 227L781 228L784 228L781 227z"/>
<path style="fill:#ca9145; stroke:none;" d="M197 228L198 318L210 319L209 322L215 321L217 326L218 326L219 283C232.05 283 242.505 282.087 254 289L254 267L218 268L217 237C213.405 238.658 210.7 241.453 207 239L198 241L197 228z"/>
<path style="fill:#8a6c3c; stroke:none;" d="M252.667 228.333L253.333 228.667L252.667 228.333z"/>
<path style="fill:#755c34; stroke:none;" d="M362.667 228.333L363.333 228.667L362.667 228.333z"/>
<path style="fill:#74603c; stroke:none;" d="M513.667 228.333L514.333 228.667L513.667 228.333z"/>
<path style="fill:#b89960; stroke:none;" d="M572 228L572 273L573 273C573 260.258 576.91 239.701 572 228z"/>
<path style="fill:#e4c481; stroke:none;" d="M691 228L691 255L678 254L678 255L681 256L681 257L676 256C676.001 269.106 681.188 265.263 691 269C691 256.896 695.766 239.358 691 228z"/>
<path style="fill:#604420; stroke:none;" d="M726 228L726 335L727 335L727 261L726 228z"/>
<path style="fill:#e7cb8a; stroke:none;" d="M727 228L727 272L728 272L728 263L748 266C748 257.858 751.17 241.294 746.821 234.275C742.936 228.005 733.349 228 727 228z"/>
<path style="fill:#503212; stroke:none;" d="M748 228L748 334L752 334L752 333L749 333L749 264L750 228L748 228z"/>
<path style="fill:#ad7f40; stroke:none;" d="M218 229L218 268L219 268C219 256.828 222.311 239.274 218 229z"/>
<path style="fill:#6b522c; stroke:none;" d="M359.667 229.333L360.333 229.667L359.667 229.333z"/>
<path style="fill:#775f39; stroke:none;" d="M480 229L480 268L481 268C481 256.828 484.311 239.274 480 229z"/>
<path style="fill:#050411; stroke:none;" d="M755.318 231.742C751.981 233.444 753 238.934 753 242L753 274L753 314C753 317.731 751.577 325.302 754.028 328.397C756.145 331.07 762.022 330.005 765 330C775.359 329.983 786.715 327.953 796 323.179C835.121 303.062 820.943 242.063 782 232.375C775.449 230.745 761.593 228.543 755.318 231.742z"/>
<path style="fill:#000000; stroke:none;" d="M998 231C997.997 256.695 987.37 283.472 975.742 306C970.904 315.37 962.991 323.831 960 334L985 334L985 409L992 409L992 272L999 272C999 260.304 1002.51 241.75 998 231z"/>
<path style="fill:#030111; stroke:none;" d="M485 263C492.619 263 500.399 263.462 508 262.946C511.18 262.73 514.913 260.698 517.852 262.657C523.228 266.242 523.558 291.315 516.941 293.824C513.18 295.25 509.319 290.481 506 289.264C499.58 286.91 491.723 288 485 288L485 317C485 320.148 483.965 325.747 486.028 328.4C487.937 330.857 493.19 330.837 496 330.961C505.261 331.367 516.048 332.197 525 329.561C530.5 327.941 545.39 316.312 549.837 318.887C554.303 321.472 551.317 327.461 550.05 331C546.864 339.903 545.448 356.136 534 357L538 368L538 373L533 372L532 376L536 376L534 381L535 382L540 382L545 374C539.638 370.669 556.688 366.416 560 366L557 368C557 370.795 555.52 370.265 553 370L554 373L550 373L552 377L544 378L543 384L547 383L550 387L552 386L560 387L561 392L563 390L564 390C565.15 395.366 578.329 393 583 393L642 393C705.495 393 774.278 400.72 836 384.861C851.034 380.998 866.038 377.203 880 370.222C884.877 367.784 892.644 365.118 895 360C885.675 360 868.012 359.425 861.318 351.853C858.352 348.498 858.566 343.148 857.445 339C856.252 334.585 851.825 321.804 857.152 319.083C862.444 316.379 873.293 326.382 878 328.73C890.559 334.994 904.592 336.654 918 332.251C929.913 328.339 934.624 315.681 924.895 306.184C913.293 294.859 895.518 291.568 882 283.186C875.294 279.028 869.538 271.116 862 269L863 272L853 281L856 296L851 293C840.627 343.253 797.686 357 752 357L725 357C721.216 357 716.22 357.735 713.337 354.682C708.587 349.652 718.193 344.418 719.991 339.999C723.48 331.421 722.116 313.888 720 305L716 306L716 301L714 301L711 306L719 317L712 319L710 314L709 314L710 318L704 315L707 316L708 309L705 311L704 308L709 306L710 306L710 302L705 304L703 293L699 294L707 293L705 296L715 299L716 295L719 297L717 290L721 291L721 283L716 283L718 281C714.523 279.638 712.748 279.368 710 282L704 280L704 287L698 285L700 280C694.573 281.163 697 295.236 697 300L697 346C697 351.018 698.582 359.218 693.917 362.667C685.614 368.805 666.843 349.389 662.389 344C647.542 326.034 632.956 307.564 618.861 289C611.5 279.305 603.092 264.743 593 258C593 282.955 590.666 309.176 593.105 334C593.78 340.87 605.569 347.564 604.248 352.87C603.22 357.004 597.29 356.956 594 356.996C584.34 357.115 574.661 357.066 565 356.999C561.498 356.975 556.842 356.96 555.407 352.956C553.668 348.103 565.753 341.333 566.699 335C569.612 315.5 567 293.725 567 274L566 274C558.899 276.641 558.263 263.208 560 259L555 265L550 264L550 267L550 268L558 269C556.319 276.145 559.805 275.868 563 281L556 279L556 283L560 281L562 286L552 291L554 279L548 281L544 275L547 276L546 273L536 273L536 268L531 265L535 266C537.873 260.899 539.34 259.666 545 262L543 265L556 259L556 257C552.724 256.631 550.933 256.276 550 253L556 255L555 252C558.097 250.372 559.748 246.867 555 247L548 235L545 236L541 232L536 239L541 245L534 244L534 238C525.204 241.826 523.188 236.324 515 233.599C509.493 231.766 503.717 232 498 232C494.849 232 488.261 230.784 486.028 233.603C481.861 238.864 485 256.364 485 263z"/>
<path style="fill:#8f7f5b; stroke:none;" d="M607 232L608 233L607 232z"/>
<path style="fill:#efdda5; stroke:none;" d="M676 256L681 257L681 256L678 255L678 254L691 255C691 248.996 692.521 239.868 689.436 234.434C687.643 231.275 679.296 230.74 677.028 233.603C673.638 237.883 676 250.679 676 256z"/>
<path style="fill:#d8ad65; stroke:none;" d="M864 233L866 262C875.068 260.392 885.907 263.545 894 258L897 261L888 244L887 244L887 246L886 246C885.816 234.829 870.99 243.064 867 234L864 233z"/>
<path style="fill:#8a7448; stroke:none;" d="M413 234L414 235L413 234z"/>
<path style="fill:#eedba7; stroke:none;" d="M573 251L574 251L577 250L577 248L583 252C587.7 250.44 586.997 246.346 587 242L598 253L602 252L606 244L599 245L577 234C570.823 236.05 573 245.611 573 251z"/>
<path style="fill:#d4a255; stroke:none;" d="M308 318C308 313.613 314.01 313.426 317 315L318 315L319 313L329 312C322.169 287.023 318.754 265.087 338 244L338 243L331 240L332 236C301.122 228.709 298.9 270.158 299.001 291C299.04 299.137 300.618 313.161 308 318z"/>
<path style="fill:#917243; stroke:none;" d="M863 236L863 239L864 239L863 236z"/>
<path style="fill:#8a7855; stroke:none;" d="M611 237L612 238L611 237z"/>
<path style="fill:#644b2a; stroke:none;" d="M887 237L887 244L888 244L887 237z"/>
<path style="fill:#4d3e2a; stroke:none;" d="M997 237L997 242L998 242L997 237z"/>
<path style="fill:#664c27; stroke:none;" d="M862 239L862 249L863 249L862 239z"/>
<path style="fill:#71522f; stroke:none;" d="M3 241L3 244L4 244L3 241z"/>
<path style="fill:#e0be7b; stroke:none;" d="M587 242C586.984 246.421 587.151 249.711 583 252L577 248L577 250L574 249L573 292L574 292C575.403 283.014 582.205 285.355 588 289L589 242L587 242z"/>
<path style="fill:#82704d; stroke:none;" d="M615 242L616 243L615 242z"/>
<path style="fill:#dbb26d; stroke:none;" d="M827 243L827 248L823 248L817 243L816 247L816 248L821 261L822 261C825.013 256.205 837.425 255.308 843 255C842.01 245.426 835.765 242.49 827 243z"/>
<path style="fill:#e7cc8f; stroke:none;" d="M611 243C606.638 246.34 602.882 245.482 602 252L597 251C598.646 259.189 608.703 272.092 616 276C611.312 263.306 632.343 268.218 638 272C633.481 261.862 621.782 246.636 611 243z"/>
<path style="fill:#795832; stroke:none;" d="M4 247L4 250L5 250L4 247z"/>
<path style="fill:#8e6e3c; stroke:none;" d="M888.333 247.667L888.667 248.333L888.333 247.667z"/>
<path style="fill:#e1bb75; stroke:none;" d="M459 248L459 278L479.999 280.114L494 278L491 279L491 280L496 280L496 281L492 281L492 282L515 288L515 267L479 268L479 259L471 255L467 256C465.871 250.88 464.167 248.975 459 248z"/>
<path style="fill:#34343b; stroke:none;" d="M41 249L41 254L42 254L41 249z"/>
<path style="fill:#935117; stroke:none;" d="M78 251L78 310C78 317.641 75.5456 327.615 84 331L84 329L92 328L99 321L100 321L100 332L101 312L101 270L99.9722 250.797L78 251z"/>
<path style="fill:#857048; stroke:none;" d="M593 249L594 250L593 249z"/>
<path style="fill:#353539; stroke:none;" d="M959 249L959 254L960 254L959 249z"/>
<path style="fill:#828282; stroke:none;" d="M960 249L953 286L954 286C957.541 276.615 964.075 258.71 960 249z"/>
<path style="fill:#b67a31; stroke:none;" d="M197 252L197 324C197 334.635 197.194 346.032 186 351L186 352L251 352C257.029 352 270.445 354.515 275.49 350.972C281.01 347.096 284.469 329.465 286 323C274.918 329.313 265.03 335.256 252 336.816C241.093 338.121 229.832 334.855 219 334L219 322L218 322L218 326L217 326L215 321L209 322L210 319L198 318L198 273L197 252z"/>
<path style="fill:#694d2c; stroke:none;" d="M5 253L5 256L6 256L5 253z"/>
<path style="fill:#ce9a4c; stroke:none;" d="M843 253C837.876 257.622 827.247 254.27 822.897 258.869C819.428 262.537 823.762 272.508 823.961 277C824.572 290.832 818.947 301.283 815 314L825 308L833 311L834 311L835 308L838 308C842.404 312.622 845.201 297.867 845.739 295C848.031 282.802 849.733 264.02 843 253z"/>
<path style="fill:#6e512b; stroke:none;" d="M863.333 253.667L863.667 254.333L863.333 253.667z"/>
<path style="fill:#887248; stroke:none;" d="M597 254L598 255L597 254z"/>
<path style="fill:#8d794f; stroke:none;" d="M626 256L627 257L626 256z"/>
<path style="fill:#70522e; stroke:none;" d="M6 257L6 260L7 260L6 257z"/>
<path style="fill:#d5a659; stroke:none;" d="M691 257L691 269L676 266L676 309L678 307L681 309L680 305L685 307L686 303L688 305L690 303L690 308L691 308L692 273L691 257z"/>
<path style="fill:#75562c; stroke:none;" d="M845.333 258.667L845.667 259.333L845.333 258.667z"/>
<path style="fill:#c28a40; stroke:none;" d="M893 258L867 262C873.484 278.736 903.715 291.308 920 296L920 295L917 292L923 291L922 285L928 285L926 278L933 279L933 278L893 258z"/>
<path style="fill:#75562c; stroke:none;" d="M820.333 259.667L820.667 260.333L820.333 259.667z"/>
<path style="fill:#443726; stroke:none;" d="M993.333 260.667L993.667 261.333L993.333 260.667z"/>
<path style="fill:#86704a; stroke:none;" d="M630 261L631 262L630 261z"/>
<path style="fill:#4c361e; stroke:none;" d="M7.33333 262.667L7.66667 263.333L7.33333 262.667z"/>
<path style="fill:#8f6b39; stroke:none;" d="M821.333 262.667L821.667 263.333L821.333 262.667z"/>
<path style="fill:#876430; stroke:none;" d="M300 263L300 266L301 266L300 263z"/>
<path style="fill:#dcb46e; stroke:none;" d="M728 263L727 287L728 287L730 281L729 278L734 280L735 280L745 274L748 275C747.99 261.802 738.949 263.44 728 263z"/>
<path style="fill:#66666b; stroke:none;" d="M43 265L43 269L44 269L43 265z"/>
<path style="fill:#523716; stroke:none;" d="M253 266L253 290C256.687 286.778 256.687 269.222 253 266z"/>
<path style="fill:#b9965a; stroke:none;" d="M514 266L515 290L516 290C516 284.132 518.565 269.989 514 266z"/>
<path style="fill:#573a18; stroke:none;" d="M219 267L219 268L251 268L219 267z"/>
<path style="fill:#7c592c; stroke:none;" d="M324 267L324 270L325 270L324 267z"/>
<path style="fill:#5c4423; stroke:none;" d="M481 267L481 268L513 268L481 267z"/>
<path style="fill:#deb874; stroke:none;" d="M624 286L624 284L629 286C631.72 279.748 636.783 282.942 641 285L644 280L649 286C644.312 274.924 636.405 268.218 625 268.441C622.32 268.493 618.947 266.631 616.434 268.118C609.377 272.295 620.116 283.92 624 286z"/>
<path style="fill:#4d381f; stroke:none;" d="M9.33333 269.667L9.66667 270.333L9.33333 269.667z"/>
<path style="fill:#7f5b2b; stroke:none;" d="M847 270L847 286L848 286L847 270z"/>
<path style="fill:#ffffff; stroke:none;" d="M0 272L0 451L256 451L256 409L9 409L9 272L0 272z"/>
<path style="fill:#61431d; stroke:none;" d="M298 272L298 278L299 278L298 272z"/>
<path style="fill:#7e5b2b; stroke:none;" d="M823 272L823 289L824 289L823 272z"/>
<path style="fill:#ffffff; stroke:none;" d="M992 272L992 409L768 409L768 429L512 429L512 451L999 451L999 272L992 272z"/>
<path style="fill:#a87b3b; stroke:none;" d="M572 273L572 333L573 333L573 292L572 273z"/>
<path style="fill:#d3a153; stroke:none;" d="M745 274L735 280L734 280L729 278L730 281C726.044 284.404 727.001 292.142 727 297L748 300C748 293.262 750.884 278.243 745 274z"/>
<path style="fill:#d9ac5f; stroke:none;" d="M459 278L459 308L460 308C460.991 294.904 469.981 305.608 477 304L475 301L479 300L479 309L480 309L480 283L497 283L497 282L492 282L492 281L496 281L496 280L491 280L491 279L494 278L481.011 279.917L459 278z"/>
<path style="fill:#5a4225; stroke:none;" d="M12.3333 278.667L12.6667 279.333L12.3333 278.667z"/>
<path style="fill:#a2773a; stroke:none;" d="M298 278L298 291L299 291L298 278z"/>
<path style="fill:#b57932; stroke:none;" d="M926 278L928 285L922 285L923 291L917 292C923.409 304.199 935.865 306.942 936 323L949 319L942 319L942 318C946.888 316.938 950.178 315.169 951 310L955 312L951 309L953 304L959 306C958.203 290.667 940.284 278.359 926 278z"/>
<path style="fill:#d8a95f; stroke:none;" d="M641 285L639 282C634.917 282.014 630.322 281.48 629 286L623 284C624.994 293.919 641.155 314.233 650 319L650 316L655 317L649 313L646 314L644 310C646.312 311.019 650.437 313.355 651 310L657 311L657 308L660 308L672 315L644 280L641 285z"/>
<path style="fill:#8d6531; stroke:none;" d="M322 281L322 289L323 289L322 281z"/>
<path style="fill:#d7a75b; stroke:none;" d="M403 282L403 283C415.22 291.686 413 304.687 413 318L414 318L414 312L421 313L422 310L433 311L434 311L436 282L403 282z"/>
<path style="fill:#815a28; stroke:none;" d="M237 283L237 284L244 284L237 283z"/>
<path style="fill:#6a481f; stroke:none;" d="M480 283L480 334L481 334C481 319.689 485.508 296.127 480 283z"/>
<path style="fill:#806337; stroke:none;" d="M499 283L499 284L504 284L499 283M507.667 284.333L508.333 284.667L507.667 284.333z"/>
<path style="fill:#5c3d19; stroke:none;" d="M434 285L434 348L435 348L435 305L434 285z"/>
<path style="fill:#ca9447; stroke:none;" d="M563 351L597 351C584.209 332.272 589.818 314.507 587.941 293C587.497 287.908 583.425 283.962 578.059 285.323C571.564 286.97 573 297.985 573 303C573 321.673 573.948 335.258 563 351z"/>
<path style="fill:#885e2a; stroke:none;" d="M412 294L412 338L413 338C413 325.52 416.81 305.463 412 294z"/>
<path style="fill:#c88d42; stroke:none;" d="M727 323C730.045 321.941 732.472 317.859 735 321L738 319L748 323C748 311.183 751.625 300.395 738 297.51C735.432 296.966 730.069 295.438 728.028 297.782C724.293 302.071 727 317.424 727 323z"/>
<path style="fill:#cc9649; stroke:none;" d="M459 335L460 335C460.267 326.787 465.098 326.5 472 328L475 323L478 323L476 333L478 331L479 331L479 334L480 334L479 300L475 301L477 304C472.004 304.524 467.756 298.815 463.144 300.623C455.483 303.626 459 328.293 459 335z"/>
<path style="fill:#c38a3f; stroke:none;" d="M686 303L685 307L680 305L681 309L678 307L676 318L660 308L657 311L651 310C651 313.929 646.432 310.64 644 310L646 314L649 313L655 317L650 316C648.836 322.011 654.291 326.614 657.8 331C667.457 343.072 676.406 354.735 692 359L692 306L691 306L691 308L690 308L690 303L687 305L686 303z"/>
<path style="fill:#a66222; stroke:none;" d="M959 303L958 306L953 304L951 309L955 312L951 310C949.639 314.708 946.482 316.455 942 318L942 319L949 319L936 323L936 315L935 315C934.991 318.365 935.104 321.808 933.852 325C924.988 347.6 895.865 332.273 882 344C880.101 340.668 878.503 340.762 875 342C874.345 336.361 868.637 339.959 865 341C863.933 355.142 882.743 355 894 355C919.633 355 959.116 348.295 959.985 315C960.088 311.056 960.534 306.655 959 303z"/>
<path style="fill:#603912; stroke:none;" d="M960 306L960 317L961 317L960 306z"/>
<path style="fill:#ba7d2f; stroke:none;" d="M825 308L814 313C798.193 335.44 772.251 334.501 748 334L748 323L738 319L735 321C733.75 315.197 729.779 321.797 727 323C727 334.577 724.476 341.489 718 351C761.494 351 820.32 359.657 841 310L838 308L834 311L825 308z"/>
<path style="fill:#cb9448; stroke:none;" d="M422 310L421 313L420 310L414 312L413 338L414 338L414 330L434 330C434 325.586 436.263 311.899 431.566 309.608C428.803 308.26 424.926 309.929 422 310z"/>
<path style="fill:#866034; stroke:none;" d="M965 309L965 317L966 317L965 309z"/>
<path style="fill:#ba7b35; stroke:none;" d="M319 313L317 315L307 316C309.361 328.361 322.717 337.864 333 343.713C366.036 362.506 399.546 353.802 435 351L434 330L414 330L414 338C382.919 341.949 346.99 345.108 330 311L319 313z"/>
<path style="fill:#aa6825; stroke:none;" d="M99 321L92 328L84 329L84 331L78 328C77.2335 337.632 74.7257 345.957 66 351L66 352L136 352C142.036 352 156.35 354.645 161.301 350.972C167.464 346.401 170.664 329.179 173 322C153.078 329.54 139.36 337.52 117 334.576C112.597 333.996 104.988 334.639 101.603 331.262C99.0892 328.753 100.305 324.11 99 321z"/>
<path style="fill:#bb803a; stroke:none;" d="M475 323L472 328C464.668 325.827 460.098 326.724 460 335L459 335L459 333L458 333C457.929 340.907 455.251 347.205 448 351L448 352L513 352L537.298 350.972L548 323C529.274 331.334 519.189 337.215 498 336.035C492.213 335.713 482.374 336.354 479 331L478 331L476 333L478 323L475 323z"/>
<path style="fill:#b5762c; stroke:none;" d="M859 323L863 346L865 346L865 341C868.356 340.577 874.261 336.86 875 342L882 344L893 340L893 338C879.661 337.39 870.618 327.887 859 323z"/>
<path style="fill:#6f4015; stroke:none;" d="M107 333L107 334L111 334L107 333z"/>
<path style="fill:#724f22; stroke:none;" d="M483 334L483 335L487 335L483 334z"/>
<path style="fill:#673f16; stroke:none;" d="M230 335L230 336L236 336L230 335z"/>
<path style="fill:#805625; stroke:none;" d="M491 335L491 336L496 336L491 335z"/>
<path style="fill:#88541f; stroke:none;" d="M240 336L240 337L255 337L240 336z"/>
<path style="fill:#90622a; stroke:none;" d="M502 336L502 337L518 337L502 336z"/>
<path style="fill:#784e1f; stroke:none;" d="M362.667 338.333L363.333 338.667L362.667 338.333z"/>
<path style="fill:#7c4f21; stroke:none;" d="M408 338L408 339L411 339L408 338z"/>
<path style="fill:#744e22; stroke:none;" d="M457.333 339.667L457.667 340.333L457.333 339.667z"/>
<path style="fill:#5c3711; stroke:none;" d="M895 339L895 340L908 340L895 339z"/>
<path style="fill:#7d5423; stroke:none;" d="M396 340L396 341L401 341L396 340z"/>
<path style="fill:#805523; stroke:none;" d="M386 341L386 342L394 342L386 341z"/>
<path style="fill:#624321; stroke:none;" d="M60 349L59 353L60 349z"/>
<path style="fill:#c3935a; stroke:none;" d="M65 357C81.439 379.335 116.231 392.987 142 400.271C173.028 409.041 205.095 407 237 407L377 407L437 407C450.925 407 463.774 405.989 476 413.966C487.496 421.467 495.313 437.102 499 450C504.668 446.725 506.239 437.596 509.312 432C515.518 420.699 524.912 410.533 538 407.529C546.7 405.533 557.099 407 566 407L622 407L799 407C840.85 407 881.193 397.803 916 373.41C925.868 366.495 936.996 358.942 944 349C935.526 352.084 927.781 356.278 919 358.794C914.454 360.096 909.26 359.228 905 361.303C896.587 365.402 889.265 372.156 881 376.694C862.923 386.622 843.319 393.697 823 397.386C793.418 402.755 761.963 400 732 400C668.872 400 605.059 397.254 542 400.039C527.27 400.69 517.736 409.678 510.862 422C509.012 425.316 504.692 440.112 500.053 439.369C495.118 438.579 492.288 425.841 490.124 422C484.141 411.38 476.188 403.387 464 400.47C456.291 398.625 446.904 400 439 400L390 400L258 400C236.318 400 213.568 401.986 192 399.829C170.349 397.665 148.486 391.433 129 381.752C116.282 375.434 103.133 361.436 90 357.514C82.6252 355.312 72.6709 357 65 357z"/>
<path style="fill:#91652d; stroke:none;" d="M560 351L560 352L600 352C592.169 347.527 569.189 349.974 560 351z"/>
<path style="fill:#8d5d26; stroke:none;" d="M716 351L716 352L775 352L756 351L716 351z"/>
<path style="fill:#52300e; stroke:none;" d="M891 355L891 356L909 356L891 355z"/>
<path style="fill:#54391b; stroke:none;" d="M64 358L100 357L73 356L64 358z"/>
<path style="fill:#4f3112; stroke:none;" d="M376 356L376 357L392 357L376 356z"/>
<path style="fill:#97754c; stroke:none;" d="M91 357L91 358C110.092 372.151 130.025 384.969 153 391.961C193.758 404.365 237.867 400 280 400L453 400C468.731 400 479.864 406.718 488.305 420C490.693 423.758 495.617 440.847 500.911 440.079C505.085 439.473 507.153 430.212 508.759 427C513.582 417.354 519.733 407.532 530 403.044C540.508 398.451 552.815 400 564 400L627 400L739 400C766.783 400 795.522 402.183 823 397.565C853.622 392.418 880.958 378.936 906 361L906 360C893.804 361.761 880.519 375.403 869 380.691C845.758 391.362 821.125 396.05 796 398.871C775.212 401.205 752.928 399 732 399L605 399C588.337 399 571.661 399.194 555 398.996C546.31 398.893 538.334 396.57 530 400.313C520.469 404.595 513.756 411.766 508.981 421C505.807 427.138 504.386 434.383 499 439C498.127 434.103 495.776 429.507 493.691 425C478.263 391.657 444.939 399 414 399L268 399C235.336 399 202.159 400.96 170 394.196C151.807 390.37 134.084 382.778 118 373.573C109.356 368.625 100.658 359.29 91 357z"/>
<path style="fill:#aaaaaa; stroke:none;" d="M94 357L94 358C116.14 373.904 139.332 386.889 166 393.525C191.733 399.928 218.717 398 245 398L367 398L432 398C443.245 398 456.191 396.208 467 399.749C477.106 403.06 481.617 410.932 490 416C477.841 383.921 425.173 395 398 395L270 395C241.316 395 212.334 396.588 184 391.536C164.358 388.034 143.137 382.018 125 373.691C115.063 369.129 104.743 358.435 94 357z"/>
<path style="fill:#848483; stroke:none;" d="M98 357L98 358C112.282 368.149 131.828 381.613 150 382L123 370.972L98 357z"/>
<path style="fill:#714f29; stroke:none;" d="M918 358L918 359L921 359L918 358z"/>
<path style="fill:#91683a; stroke:none;" d="M912 359L912 360L917 360L912 359z"/>
<path style="fill:#848483; stroke:none;" d="M825 388L825 389C841.422 386.877 861.07 381.183 876 373.971C883.419 370.388 893.728 361.233 902 362C897.424 356.797 887.557 365.813 883 368.219C864.433 378.022 844.33 380.601 825 388z"/>
<path style="fill:#b1b1b1; stroke:none;" d="M508 422L509 422C528.999 386.079 580.865 398 616 398L744 398C771.599 398 799.854 399.766 827 394.371C850.52 389.697 885.035 380.317 901 361C890.702 362.497 880.701 371.729 871 375.772C852.26 383.581 830.012 389.196 810 392.679C783.904 397.221 756.396 395 730 395L596 395C568.74 395 515.265 384.431 508 422z"/>
<path style="fill:#37373f; stroke:none;" d="M134.667 376.333L135.333 376.667L134.667 376.333z"/>
<path style="fill:#838382; stroke:none;" d="M150 382L150 383L163 385L150 382z"/>
<path style="fill:#90908f; stroke:none;" d="M163 385L163 386C190.52 398.18 224.678 395 254 395L397 395C421.212 395 448.387 391.602 472 397C466.553 391.896 456.029 394 449 394L390 394C331.781 394 272.067 397.887 214 393.91C196.509 392.713 180.191 387.315 163 385z"/>
<path style="fill:#4d4d57; stroke:none;" d="M822 388L822 389L825 389L822 388z"/>
<path style="fill:#949493; stroke:none;" d="M538 394L538 395L707 395L792 394.91L825 390L798 392.87L748 394L538 394z"/>
<path style="fill:#5d5d5f; stroke:none;" d="M805 391L805 392L809 392L805 391z"/>
<path style="fill:#525259; stroke:none;" d="M198 392L198 393L205 393L198 392M795 392L795 393L801 393L795 392z"/>
<path style="fill:#5f5f62; stroke:none;" d="M210 393L210 394L467 394L443 393L391 393L210 393z"/>
<path style="fill:#656566; stroke:none;" d="M534 393L534 394L794 394L770 393L717 393L534 393z"/>
<path style="fill:#80807e; stroke:none;" d="M502 432L499 430L498 430L504 434C509.657 417.382 517.676 397.08 538 395C520.211 387.608 505.059 419.092 502 432z"/>
<path style="fill:#47474b; stroke:none;" d="M472 396L472 397L475 397L472 396z"/>
<path style="fill:#7e5d36; stroke:none;" d="M132.667 397.333L133.333 397.667L132.667 397.333z"/>
<path style="fill:#7c7c7b; stroke:none;" d="M472 397L472 398L492 416C488.801 407.275 481.764 398.06 472 397z"/>
<path style="fill:#6d4f2c; stroke:none;" d="M135.667 398.333L136.333 398.667L135.667 398.333z"/>
<path style="fill:#9d876c; stroke:none;" d="M201 398L201 399L463 399L439 398L386 398L201 398z"/>
<path style="fill:#9d8365; stroke:none;" d="M548 398L548 399L800 399L777 398L726 398L548 398z"/>
<path style="fill:#503c24; stroke:none;" d="M863.667 398.333L864.333 398.667L863.667 398.333z"/>
<path style="fill:#4b3923; stroke:none;" d="M860.667 399.333L861.333 399.667L860.667 399.333z"/>
<path style="fill:#7e5e38; stroke:none;" d="M142.667 400.333L143.333 400.667L142.667 400.333z"/>
<path style="fill:#574128; stroke:none;" d="M149.667 402.333L150.333 402.667L149.667 402.333z"/>
<path style="fill:#433421; stroke:none;" d="M849.667 402.333L850.333 402.667L849.667 402.333z"/>
<path style="fill:#5d4528; stroke:none;" d="M154.667 403.333L155.333 403.667L154.667 403.333z"/>
<path style="fill:#5a4328; stroke:none;" d="M159.667 404.333L160.333 404.667L159.667 404.333z"/>
<path style="fill:#5c4429; stroke:none;" d="M832 405L832 406L835 406L832 405z"/>
<path style="fill:#563f24; stroke:none;" d="M172 406L172 407L177 407L172 406z"/>
<path style="fill:#523e26; stroke:none;" d="M185 407L185 408L462 408L437 407L380 407L185 407M537 407L537 408L816 408L791 407L734 407L537 407z"/>
<path style="fill:#423321; stroke:none;" d="M534.667 408.333L535.333 408.667L534.667 408.333z"/>
<path style="fill:#96989b; stroke:none;" d="M489 416L499 439L503 433C497.773 432.759 493.636 420.873 492 416L489 416z"/>
<path style="fill:#747473; stroke:none;" d="M492 416L494 422L495 422L492 416z"/>
</svg>
