<?xml version="1.0" standalone="yes"?>
<svg width="256" height="256">
<path style="fill:#ffffff; stroke:none;" d="M0 0L0 256L35 256C29.3869 242.468 50.3121 238.108 47.7083 227.004C45.7052 218.461 31.9517 207.918 27.0648 200C15.4831 181.236 8.57537 156.111 10.0895 134C11.5942 112.028 18.5138 90.2701 30.8866 72C36.1241 64.2661 51.4442 53.9381 52.8519 44.9961C53.6447 39.9594 54.0639 31.4759 51.436 27C46.2579 18.1807 34.1872 11.2263 36 0L0 0z"/>
<path style="fill:#000000; stroke:none;" d="M222 211C259.579 165.604 251.141 91.2861 208.83 52.2469C183.885 29.2304 150.378 19.3658 117 22C117 17.4262 119.266 4.09259 115.397 1.02779C112 -1.66232 103.125 0 99 0L54 0C49.9784 0 38.9074 -1.93542 36.1829 1.60339C32.6207 6.23015 39.4003 12.7486 42 16C48.5578 24.2016 59.5899 37.9239 50.686 48.8302C42.5292 58.8214 33.163 66.6582 26.4522 78C7.43564 110.139 4.90005 151.721 19.5687 186C23.7246 195.712 28.9372 204.655 35.4252 213C38.6659 217.168 44.4326 221.205 46.5486 226.015C50.102 234.091 24.6583 247.843 35.3179 254.972C38.4755 257.084 44.3854 256 48 256L79 256L169 256C181.357 256 198.084 258.969 209.961 255.566C219.566 252.815 231.491 232.779 237.38 225C239.64 222.016 242.625 217.242 239.972 213.514C236.872 209.157 226.633 211 222 211z"/>
<path style="fill:#ffffff; stroke:none;" d="M116 0L117 22C185.777 19.047 249.149 70.1852 245.961 143C244.853 168.291 234.829 189.766 222 211C226.946 211 236.905 209.233 239.968 214.279C242.503 218.457 238.218 222.957 235.799 226C228.259 235.488 220.41 247.369 211 255L211 256L256 256L256 0L116 0z"/>
<path style="fill:#2b1f05; stroke:none;" d="M40 5L78 4L50 3L40 5z"/>
<path style="fill:#ffff94; stroke:none;" d="M41 4L43 8L44 8L41 4z"/>
<path style="fill:#fffee3; stroke:none;" d="M43 4C44.7413 10.6877 49.3597 16.7363 56 19L48 7C67.2258 7 90.2905 10.4544 109 6L88 5.99924L43 4z"/>
<path style="fill:#ffeb85; stroke:none;" d="M47 4L47 5L63 5L47 4z"/>
<path style="fill:#ffb84e; stroke:none;" d="M63 4L63 5L78 5L63 4z"/>
<path style="fill:#ac702e; stroke:none;" d="M78 4L78 5L107 5L78 4z"/>
<path style="fill:#c0a56f; stroke:none;" d="M107 4L107 5L112 6L107 4z"/>
<path style="fill:#999327; stroke:none;" d="M41 5L42 6L41 5z"/>
<path style="fill:#ffeb9a; stroke:none;" d="M80 5L80 6L104 6L80 5z"/>
<path style="fill:#764b13; stroke:none;" d="M103 8L103 9C108.977 16.8878 105.444 32.5689 106.09 42C108.11 71.5057 107 101.393 107 131L108 131L108 48L109 6L103 8z"/>
<path style="fill:#7c3e28; stroke:none;" d="M109 6L109 116L110 116L111.17 95L111 6L109 6z"/>
<path style="fill:#934e3d; stroke:none;" d="M111 6L111 42L112 42C112 31.6131 115.011 15.5596 111 6z"/>
<path style="fill:#ffef97; stroke:none;" d="M48 7L50 11L56 12C55.198 7.19449 52.4342 7.05255 48 7z"/>
<path style="fill:#fac960; stroke:none;" d="M55 7L56 12L51 10L58 15L62 8L55 7z"/>
<path style="fill:#d59447; stroke:none;" d="M59 8L58 15L53 13L59 17C60.9286 20.7384 64.452 23.9009 65.5664 28C69.6984 43.1988 66 64.2286 66 80L70 77L67 78L67 70L70 71L70 61L67 61L67 27L82 24L81 21L98 18L97 21L100 26L104 26L104 32L105 32L104 12L97 12L92 15L91 11C87.436 12.5728 86.4412 14.148 86 18L85 18C82.384 11.4843 73.833 11.5075 68 13L67 9L76 8L59 8z"/>
<path style="fill:#c06f2b; stroke:none;" d="M67 9L68 13C74.2606 11.8006 81.311 11.9731 85 18L86 18L91 11L92 15L97 12L104 12L105 45L106 45C106 36.7885 109.518 14.6949 103 9L103 8L106 8C96.4955 4.01178 76.7474 6.09192 67 9z"/>
<path style="fill:#411b10; stroke:none;" d="M108 7L108 116L109 116L109 40L108 7z"/>
<path style="fill:#7c931a; stroke:none;" d="M45 10L46 11L45 10z"/>
<path style="fill:#a5b02f; stroke:none;" d="M46 11L47 12L46 11z"/>
<path style="fill:#bbd44a; stroke:none;" d="M47 12L48 13L47 12z"/>
<path style="fill:#6b801c; stroke:none;" d="M49 15L50 16L49 15z"/>
<path style="fill:#8fa426; stroke:none;" d="M50 16L51 17L50 16z"/>
<path style="fill:#b1c436; stroke:none;" d="M51 17L52 18L51 17z"/>
<path style="fill:#9c6d2d; stroke:none;" d="M57 17L63.5702 29L64.1698 49L65 125L66 125L66 46C66 35.2432 68.1773 22.971 57 17z"/>
<path style="fill:#fff4b3; stroke:none;" d="M52 18L61 25C59.3606 20.2447 56.9008 18.6618 52 18z"/>
<path style="fill:#faba5b; stroke:none;" d="M81 21L82 24L67 27L67 31C70.3563 31.4613 70.8427 33.3255 69 36L69 37L78 41L78 49L79 49L80 47L80 53C82.2715 58.4531 85.9395 58.8114 88 53L96 57L94 52L96 49L100 52L100 48L103 54L99 56L103 55C107.642 74.2225 106 94.2887 106 114L107 114L104 26L100 26C99.9358 23.0066 100.054 21.6544 97 21L98 18L81 21z"/>
<path style="fill:#757b17; stroke:none;" d="M54 21L55 22L54 21z"/>
<path style="fill:#8d941e; stroke:none;" d="M55 22L56 23L55 22z"/>
<path style="fill:#e8b357; stroke:none;" d="M58 25L59 76L59 177L60 177L61.0394 61L62 24L58 25z"/>
<path style="fill:#55482e; stroke:none;" d="M58 26L58 214L59 214L59 82L59 44L58 26z"/>
<path style="fill:#3f1720; stroke:none;" d="M114 27L114 38L117 38L119 26L114 27z"/>
<path style="fill:#985935; stroke:none;" d="M119 26L118 37L121 37L121 29L142 28L119 26z"/>
<path style="fill:#422921; stroke:none;" d="M138 26L138 27L142 27L138 26z"/>
<path style="fill:#cc8056; stroke:none;" d="M63 27L63 184L64 184L64 74C64 60.7469 68.1066 39.1695 63 27z"/>
<path style="fill:#443133; stroke:none;" d="M137 28L137 29C169.325 30.3879 201.052 50.7787 218.971 77C224.091 84.4918 228.379 92.5051 231.575 101C233.292 105.565 233.635 111.332 238 114C237.214 104.391 232.597 95.444 228.258 87C211.689 54.7579 175.074 25.0204 137 28z"/>
<path style="fill:#724a20; stroke:none;" d="M117 29L117 38L138 38L138 37L118 37L117 29z"/>
<path style="fill:#bd6e39; stroke:none;" d="M121 29L121 37C142.848 37 164.589 42.0752 183 54.3549C191.381 59.9452 198.084 69.8085 207 74C209.388 61.09 199.931 53.9785 190 47.3549C168.587 33.0728 146.187 29 121 29z"/>
<path style="fill:#ffd169; stroke:none;" d="M68 30L67 61L70 61L70 71L67 70L67 78L72 78L70 84L79 82L84 86L85 83L81 80C83.9253 81.3001 88.0618 85.3705 89 81L91 83L92 83L98 65L105 64L103 55L99 56L103 54L100 48L100 52L96 49L94 52L96 57L88 53C85.2489 58.2113 82.8956 57.8655 80 53L80 47L79 49L78 49L78 41L69 37C71.0787 34.0024 71.0075 32.1665 68 30z"/>
<path style="fill:#ffdc6f; stroke:none;" d="M62 31L60 177L61 177L61 175L62 175L62 207L63 207L63 83L63 48L62 31z"/>
<path style="fill:#482900; stroke:none;" d="M118 38L118 40C137.015 40 154.77 42.3543 172 50.9691C210.923 70.4305 232.754 115.553 223.88 158C221.102 171.291 215.218 185.112 207.104 196C202.279 202.475 194.728 208.016 191 215C197.657 215 206.819 217.116 211 211L199 211C211.102 193.803 222.661 179.442 226.69 158C234.742 115.143 214.674 68.9371 175 48.9699C156.414 39.6158 138.403 38 118 38z"/>
<path style="fill:#001b24; stroke:none;" d="M119 44C112.716 55.3061 114 66.3327 114 79L116 79L115 65L116 65L114.019 87L114 138C123.318 132.508 120 116.233 120 107C120 97.1387 118.727 84.5518 121.433 75.0432C122.446 71.4819 125.87 69.5753 128.031 66.7608C130.176 63.9667 130.639 60.0812 132.857 57.5131C138.16 51.3735 150.654 51 158 51L158 50L122 47L119 56L118 56L119 44z"/>
<path style="fill:#b1682b; stroke:none;" d="M106 45L106 61L107 61L106 45z"/>
<path style="fill:#001332; stroke:none;" d="M161 49L185 67C170.047 71.2119 150.431 76.0161 149 94C165.949 84.345 180.643 74.0022 201 74C196.044 63.3798 173.482 45.6026 161 49z"/>
<path style="fill:#015f9e; stroke:none;" d="M156 51C158.783 58.0295 174.507 69.3748 182 68L182 66C174.519 61.3463 164.936 48.9598 156 51z"/>
<path style="fill:#92501e; stroke:none;" d="M64 51L63 223L64 223L65 220L66 224L67 224L65 215C69.0325 198.062 65.8106 178.989 65.0394 162C64.074 140.736 65 119.282 65 98C65 84.7469 69.1066 63.1695 64 51z"/>
<path style="fill:#002836; stroke:none;" d="M115 170L118 170C118 183.072 119.212 194.988 114 207L117 206C117.8 216.27 142.013 212 150 212C159.722 212 169.305 211 179 211C183.816 211 190.58 212.193 194.999 209.972C205.883 204.504 213.6 187.711 218 177L206 177L207 179C196.345 179.879 187.801 189.951 179 195.438C173.641 198.778 166.132 200.207 160 201.544C148.584 204.032 144.467 195.441 135 194.531C130.595 194.107 125.81 198.221 122 200L132 193L132 188L129 187L132 174L135 175L134 172C137.884 172.447 140.606 173.158 142 169L155 169L156 165L156 164L171 153L163 151L163 150L165 148C146.704 150.324 133.33 158.455 118 168C120.769 161.59 121.495 154.949 120.83 148C120.521 144.767 118.068 139.113 119.287 136.08C121.348 130.954 128.659 126.465 132.112 122C139.889 111.944 145.661 100.494 148.331 88C149.279 83.563 150.567 77.5591 149.769 73.054C148.071 63.4719 138.732 53.8735 156 52C141.896 46.0816 126.716 61.6817 121.738 73.2099C116.546 85.2373 120 106.018 120 119C120 122.906 120.54 127.287 119.101 130.999C117.951 133.967 114.761 136.755 114.559 140C113.975 149.343 115.2 160.3 115 170z"/>
<path style="fill:#004266; stroke:none;" d="M149 71L150 71C149.93 62.7055 145.68 57.1171 155 53C142.366 48.6685 143.746 64.9048 149 71z"/>
<path style="fill:#0aadba; stroke:none;" d="M155 52L156 55L148 57L147 57L152 82L177 69L155 52z"/>
<path style="fill:#4a1f1c; stroke:none;" d="M53 69C57.2286 64.859 56 58.5605 56 53C50.029 56.0897 52.9962 63.202 53 69z"/>
<path style="fill:#4ae9f0; stroke:none;" d="M148 59L156 53C151.901 53.7451 149.285 54.8932 148 59z"/>
<path style="fill:#002d60; stroke:none;" d="M168 56L184 68C183.68 61.1125 174.287 56.4227 168 56z"/>
<path style="fill:#b88c5a; stroke:none;" d="M32 81L33 81L44 69L52 57C43.6977 60.8743 34.7783 72.2961 32 81z"/>
<path style="fill:#a26d39; stroke:none;" d="M51 58L44 67L52 60L52 71L53 71L51 58z"/>
<path style="fill:#d2913d; stroke:none;" d="M51 60L44 68C48.071 71.8414 44.7633 75.2036 44 80C50.1265 75.0557 54.2999 67.8642 51 60z"/>
<path style="fill:#a25625; stroke:none;" d="M206 61L207.323 76L216 91L217 91L221 86L222 82C219.07 74.2715 212.638 65.8864 206 61z"/>
<path style="fill:#ffec9a; stroke:none;" d="M98 65C96.4274 70.2898 95.4284 83.0663 89 81L88 84L87 84L81 80L85 83L84 86L79 82C76.038 83.8945 70.4265 83.4633 68.3179 85.9082C61.0751 94.306 70.3867 113.998 74 122L76 122L75 113L81 119L78 110L81 111C85.0722 109.322 89.1068 112.373 91 116L90 116L87 114L89 119L93 118L96 124L97 124L99 121L99 120L92 107L94 104L93 104L90 106C91.3549 98.3089 93.78 91.601 103 92C106.951 82.9408 106 73.7348 106 64L98 65z"/>
<path style="fill:#04e7cc; stroke:none;" d="M150 64L149 88L150 88C151.847 81.0194 154.385 70.4182 150 64z"/>
<path style="fill:#003d5d; stroke:none;" d="M115 65L114 82C119.559 77.7237 118.403 70.6723 115 65z"/>
<path style="fill:#eea553; stroke:none;" d="M19 158L24 158C22.2326 161.73 22.8577 163.307 27 164C27 144.898 25.2492 127.713 30.6651 109C33.7269 98.4207 42.6033 88.6692 44 78L43 78L41 80C42.0307 77.3889 43.9061 71.8343 47 74C47.5702 67.4383 42.8524 69.1744 39.669 73.0201C34.6058 79.1367 30.0668 86.6811 27.0116 94C17.9068 115.811 18.9848 135.072 19 158z"/>
<path style="fill:#b97144; stroke:none;" d="M31 80L29 87L43 69L31 80z"/>
<path style="fill:#009c98; stroke:none;" d="M150 70L150 74L151 74L150 70z"/>
<path style="fill:#001110; stroke:none;" d="M55 71C21.2748 112.555 22.2617 161.208 53 204C59.381 197.93 56 180.323 56 172C56 151.396 55.1381 130.583 56.0394 110C56.5562 98.1975 59.7009 82.2028 55 71z"/>
<path style="fill:#ffe876; stroke:none;" d="M45 72L41 80C43.9892 78.1347 45.7061 75.5613 45 72z"/>
<path style="fill:#5b3200; stroke:none;" d="M51 72C27.2084 97.9076 23.1549 132.819 30 166L31 166C29.4893 144.812 27.2553 124.402 35.0648 104C37.8933 96.6107 41.8875 89.5142 46.3472 83C48.6671 79.6114 52.3357 76.26 51 72z"/>
<path style="fill:#00396a; stroke:none;" d="M190 74L190 75L194 75L194 76L189 77L189 79C196.934 86.5727 193.01 97.5662 183 100.454C178.527 101.745 173.561 100.032 169.184 101.703C164.292 103.571 160.186 107.143 155 109L155 105L154 105L148 122C137.902 122 146.391 129.436 146 131L166 135L159 142L211 140L211 141L206 141L206 142L217 142L216.481 118L199 76L202 75L190 74z"/>
<path style="fill:#004c8f; stroke:none;" d="M182 76L182 77L185 77L185 78C170.469 81.0072 159.536 85.9401 154 100L155 109C161.098 107.566 165.394 102.894 171.04 101.419C177.896 99.6276 184.614 102.273 190.682 97.1157C195.404 93.1033 193.722 82.0689 189 79L189 77L194 76L182 76z"/>
<path style="fill:#00232a; stroke:none;" d="M199 76C203.931 94.1467 216.906 108.199 216.039 128C215.785 133.808 213.79 140.847 221 142C223.3 130.85 223.357 117.977 218.091 107.425C212.994 97.2123 203.969 86.9313 203 75L199 76z"/>
<path style="fill:#001a18; stroke:none;" d="M202 76C210.22 99.9752 224.578 115.432 221 142C202.161 142 179.535 138.409 163 150L163 151L171 153L156 164L156 165L158 166L155 169L142 169C140.009 172.429 137.763 172.176 134 172L135 175L132 174L129 187L132 188L131 192C138.123 191.33 139.08 195.937 145.015 198.258C150.366 200.351 160.536 199.718 166 198.215C171.621 196.668 178.697 194.4 182.61 189.895C186.477 185.442 186.62 178.436 193.005 176.573C200.157 174.485 211.124 180.442 217.49 175.972C223.068 172.055 224.349 157.238 225.05 151C227.317 130.823 224.769 109.927 214.572 92C211.363 86.3587 207.923 79.0266 202 76z"/>
<path style="fill:#ddb15c; stroke:none;" d="M70 77L66 80L66 150C66 157.024 63.0549 170.079 71 173L69 177L73 178L72 182L75 180L77 184L74 187L78 188L80 184L81 184C82.9008 190.317 79.1545 194.274 77 200L80 200L75 216L81 214L83 223L91 221L92 224L94 221L96 224L101 223L101 224L99 226L103 231C106.999 230.311 115.049 233.348 116 229L118 231C121.624 230.396 126.986 229.056 126 233L133 232L133 234L153 230L154 227C158.061 231.292 163.018 233.838 169 233L170 236C178.328 234.712 179.609 227.934 189 231C190.128 228.821 191.181 226.485 193 229L201 227L201 224L137 224C126.306 224 111.903 225.179 102 221C106.647 217.649 105 210.21 105 205C105 189.659 108.346 169.703 104 155L103 155L100 182L98 180L88 177L85 178L75 161L69 163L70 157L68 165L67 165L67 114L68 114L72 119L67.0548 91.0147L70 77z"/>
<path style="fill:#008397; stroke:none;" d="M148 97C160.121 88.9906 170.825 82.024 185 78C175.795 74.4156 150.938 88.0716 148 97z"/>
<path style="fill:#00a190; stroke:none;" d="M149 79L149 84L150 84L149 79z"/>
<path style="fill:#003b31; stroke:none;" d="M39 104L45 105L52 101L52 105L56 105L53 82C44.3259 83.4577 39.993 96.3173 39 104z"/>
<path style="fill:#bf9241; stroke:none;" d="M220 82L221 86C213.13 91.1333 226.811 114.867 227 124L228 124L232 123L230 108L227 109L228 105L234 108L223 82L220 82z"/>
<path style="fill:#804520; stroke:none;" d="M28 85C18.8162 107.385 15 126.802 15 151L16 151C16.3111 135.926 18.1605 119.345 23.0787 105C24.997 99.4049 31.3769 90.5401 28 85z"/>
<path style="fill:#fffcd7; stroke:none;" d="M104 87L103 92C93.3886 91.1553 90.7101 97.8256 90 106L93 104L94 104L92 107L99 120L99 121C95.3511 123.116 98.786 128.077 102 128L101 132L104 132L105 157L106 157L106 87L104 87z"/>
<path style="fill:#00b5a5; stroke:none;" d="M148 87C145.527 103.749 135.175 115.579 126 129L127 130C136.11 123.29 143.121 110.552 146.91 100C148.366 95.944 150.436 90.7969 148 87z"/>
<path style="fill:#005560; stroke:none;" d="M118 138L148 122C149.091 116.908 157.979 103.851 154 100L158 90C144.255 95.8196 140.087 115.088 130.7 126C127.022 130.276 119.656 132.785 118 138z"/>
<path style="fill:#a23b15; stroke:none;" d="M111 92L111 154L112 154L112 112L111 92z"/>
<path style="fill:#008570; stroke:none;" d="M45 105L52 105L52 101C48.3084 101.12 46.2226 101.313 45 105z"/>
<path style="fill:#002022; stroke:none;" d="M47 105L45 140L44 153L44 154L52 155L52 105L47 105z"/>
<path style="fill:#d1b860; stroke:none;" d="M228 105L227 109L230 108C228.916 113.686 228.514 118.153 232 123L228 122L229 139L231 141L238 142C238 129.626 239.956 112.137 228 105z"/>
<path style="fill:#ffd479; stroke:none;" d="M81 111L78 110L81 119L75 113L76 122L74 122L73 118L68 114L67 114L67 156L68 156L69 151L73 152L72 155L77 158L80 149L93 165L92 169L96 170L100 180C105.221 175.034 102.857 161.923 103 155L105 156L104 132L101 132L102 128L93 118L91 118L90 119L92 125L87 124L89 120L86 122L85 122L82 117L86 119L84 112L85 112L86 116L87 116L90 116C90.889 111.804 83.9502 108.008 81 111z"/>
<path style="fill:#eac372; stroke:none;" d="M84 112L86 119L82 117L85 122L86 122L89 120L87 124L92 125L84 112z"/>
<path style="fill:#f1e491; stroke:none;" d="M106 114L106 137L107 137L106 114z"/>
<path style="fill:#614130; stroke:none;" d="M236 114L239 135L240 135C240 128.503 241.889 118.337 236 114z"/>
<path style="fill:#853608; stroke:none;" d="M110 115C105.427 130.47 109.991 149.457 111 165L112 165L110.996 132L110 115z"/>
<path style="fill:#5e2203; stroke:none;" d="M108 116L107 182L108 182C112.099 168.132 109 149.465 109 135C109 129.113 110.292 121.462 108 116z"/>
<path style="fill:#003b4e; stroke:none;" d="M142 125L118 138C123.11 147.174 120.972 158.56 118 168L125.093 160.965L150.09 145.584L166 135L146 131L142 125z"/>
<path style="fill:#786029; stroke:none;" d="M26 128L26 147L27 147L26 128z"/>
<path style="fill:#ae742d; stroke:none;" d="M65 128L65 167L66 167C66 155.828 69.3111 138.274 65 128z"/>
<path style="fill:#562b05; stroke:none;" d="M240 128L239 157L240 157C241.483 149.011 243.184 135.587 240 128z"/>
<path style="fill:#4690a7; stroke:none;" d="M122 134L127 129L122 134z"/>
<path style="fill:#7b6731; stroke:none;" d="M228 129L228 146L229 146L228 129z"/>
<path style="fill:#916d30; stroke:none;" d="M17 130L17 159L18 159C19.0209 150.922 20.1816 137.582 17 130z"/>
<path style="fill:#a56e24; stroke:none;" d="M238 132L238 146L239 146L238 132z"/>
<path style="fill:#7f3d08; stroke:none;" d="M239 135L236 163L238 163C239.07 154.545 242.422 143.155 239 135z"/>
<path style="fill:#c1a56b; stroke:none;" d="M106 137L106 187L107 187C107 172.951 111.409 149.89 106 137z"/>
<path style="fill:#d08630; stroke:none;" d="M230 138L229 155L237 157L236 139L230 138z"/>
<path style="fill:#00686c; stroke:none;" d="M183 139L183 140L211 141L183 139z"/>
<path style="fill:#00797d; stroke:none;" d="M147 149L176 141C168.814 137.986 150.551 141.959 147 149z"/>
<path style="fill:#06c7b3; stroke:none;" d="M146 151L188 141C178.856 137.163 151.554 142.62 146 151z"/>
<path style="fill:#00424b; stroke:none;" d="M147 151L147 152L192 142C180.375 137.124 158.265 147.189 147 151z"/>
<path style="fill:#007884; stroke:none;" d="M165 145L165 146L170 145L165 145z"/>
<path style="fill:#fbc860; stroke:none;" d="M80 149L77 158L72 155L73 152L69 151L67 165L68 165L70 157L69 163L75 161L85 178L88 177C90.4968 180.131 94.1799 180.529 98 180L98 182L101 181L96 170L92 169L93 165L83.8171 156.741L80 149z"/>
<path style="fill:#008a83; stroke:none;" d="M134 157L147 151C142.18 150.434 136.693 152.889 134 157z"/>
<path style="fill:#004037; stroke:none;" d="M36 152C36.1083 161.73 39.5699 172.519 44.2855 180.999C45.5612 183.294 48.6857 190.212 52.4012 187.863C54.6335 186.452 53.9955 182.203 54 180L54 156L53 156C53 165.601 55.136 177.547 50 186L40 154L44 154L36 152z"/>
<path style="fill:#a9642a; stroke:none;" d="M227 152L232 163L228 166L233 172L234 172L237 157L229 155L227 152z"/>
<path style="fill:#c58531; stroke:none;" d="M27 153L27 164C23.4112 162.879 23.0055 161.56 24 158L20 158L25 175L32 172L27 153z"/>
<path style="fill:#006052; stroke:none;" d="M40 154L50 186C53.9101 181.467 55.8725 161.704 51.9722 156.589C49.6376 153.527 43.4021 154.028 40 154z"/>
<path style="fill:#69493f; stroke:none;" d="M18 155C16.7745 165.377 20.4849 176.212 26 185L27 185L18 155z"/>
<path style="fill:#006769; stroke:none;" d="M121 165L135 157C129.58 156.638 123.503 160.182 121 165z"/>
<path style="fill:#c57d2e; stroke:none;" d="M227 156L229 158C226.896 164.638 226.27 168.529 233 172L228 166L232 163L227 156z"/>
<path style="fill:#e1c982; stroke:none;" d="M105 157L105 202C105 208.31 106.596 216.132 102 221L114 223L114 221C105.377 219.636 107 210.835 107 204C107 194.278 106 184.695 106 175C106 169.381 107.189 162.216 105 157z"/>
<path style="fill:#674b1c; stroke:none;" d="M30 158L35 177C36.0923 171.425 32.9281 162.849 30 158z"/>
<path style="fill:#a9692d; stroke:none;" d="M227 158L223 174L227 174C225.843 177.937 225.112 180.702 221 182L228 187L232.303 174.054L227.696 166.871L229 158L227 158z"/>
<path style="fill:#a14a0a; stroke:none;" d="M109 159L110 216L107 215L111 220L111 159L109 159z"/>
<path style="fill:#572b07; stroke:none;" d="M236 163L232 180L233 180L238 163L236 163z"/>
<path style="fill:#632c06; stroke:none;" d="M111 165L111 201L112 201C112 190.613 115.011 174.56 111 165z"/>
<path style="fill:#9c5e25; stroke:none;" d="M23 170C24.3429 185.381 37.6633 211.173 52 218C52 201.095 39.9137 186.86 32 172L25 175L23 170z"/>
<path style="fill:#e39d35; stroke:none;" d="M67 172L67 208L70 206L74 212L75 212L80 200L77 200C79.9127 194.688 83.4008 190.094 81 184L80 184L78 188L74 187L77 184L75 180L72 182L73 178L69 177L71 173L67 172z"/>
<path style="fill:#975721; stroke:none;" d="M222 172C221.005 176.188 212.426 192.179 221 192L222 195L227 187L221 182C225.572 181.207 226.117 178.195 227 174L222 172z"/>
<path style="fill:#fff7b6; stroke:none;" d="M61 175C58.3151 186.277 60.6981 198.498 59.9105 210C59.5791 214.839 57.5052 219.758 62 223C62 209.367 66.3494 187.748 61 175z"/>
<path style="fill:#8b7533; stroke:none;" d="M35 176C34.8369 184.208 44.7937 200.105 52 204L37 176L35 176z"/>
<path style="fill:#008f7c; stroke:none;" d="M192 176L192 177L202 177L202 179C194.812 179.568 190.624 180.871 188 188L207 179L192 176z"/>
<path style="fill:#f6d071; stroke:none;" d="M59 177L59 214L60 214C60 203.351 63.1113 186.798 59 177z"/>
<path style="fill:#007469; stroke:none;" d="M189.667 177.333L190.333 177.667L189.667 177.333z"/>
<path style="fill:#11eef8; stroke:none;" d="M188 180L202 179L202 177C197.3 177 191.119 175.903 188 180z"/>
<path style="fill:#00dab9; stroke:none;" d="M187 179L186 188L198 180L198 179L187 179z"/>
<path style="fill:#2d1812; stroke:none;" d="M231 179L212 211L213 212C219.405 207.392 236.091 187.273 231 179z"/>
<path style="fill:#8f6a2a; stroke:none;" d="M107 182L107 215L108 215L107 182z"/>
<path style="fill:#00aa94; stroke:none;" d="M185 185C179.57 195.438 165.123 199.521 154 200L154 201C161.193 200.995 192.059 197.754 185 185z"/>
<path style="fill:#5b3915; stroke:none;" d="M216 186L212 193L212 194L214 197L222 198L223 195L221 192L218 193L216 186z"/>
<path style="fill:#5d2b0a; stroke:none;" d="M27 188C28.2751 194.311 34.2813 203.078 40 206L27 188z"/>
<path style="fill:#006b61; stroke:none;" d="M134 191L134 192L135 194C144.708 200.75 150.23 202 162 202L162 201L154 201L154 200L160 200L146.004 198.258L134 191z"/>
<path style="fill:#34a9c0; stroke:none;" d="M128 196L136 193C132.574 191.814 129.962 193.043 128 196z"/>
<path style="fill:#ae5c2a; stroke:none;" d="M108 194L108 216L110 216L110 194L108 194z"/>
<path style="fill:#94531f; stroke:none;" d="M212 194L199 211C210.198 211 217.116 208.711 221 197L214 197L212 194z"/>
<path style="fill:#027b86; stroke:none;" d="M122 200L129 196L122 200z"/>
<path style="fill:#623024; stroke:none;" d="M111 201L111 220L221 221L201 245L205 245L204 248L207 251L214 242L211 241L227 221L227 220L112 217L111 201z"/>
<path style="fill:#341c0a; stroke:none;" d="M52 203L52 218L38 206C41.7769 213.582 47.5163 220.15 56 222C56 215.307 57.5997 207.664 52 203z"/>
<path style="fill:#d38825; stroke:none;" d="M66 205L65 215L66 226C68.6842 228.571 69.5022 230.029 67 233L67 234L75 236L77 232L73 227L76 222L70 206L66 205z"/>
<path style="fill:#e9c489; stroke:none;" d="M62 211L62 222L63 222L62 211z"/>
<path style="fill:#a18f4d; stroke:none;" d="M58 214L58 227L59 227L58 214z"/>
<path style="fill:#d49542; stroke:none;" d="M74 214L76 222L73 227L80 229L78 233L82 233L81 237L92 239L88 242L86 240C88.7912 244.938 95.8614 243.047 101 244L101 239L101 238L111 239L120 236L121 236C122.126 241.255 126.791 237.108 130.583 237.889C133.06 238.399 134.469 241.298 136 243L137 240L138 240L138 243L143 242L142 239L150 241L149 239L150 239C158.116 245.311 169.989 242.649 178 238L176 236L191 235L200 232L199 228L212 229L213 229L218 223L201 224L201 227L193 229L192 226L191 226L189 231C179.65 226.685 178.19 233.5 170 236L169 233C162.768 232.954 158.815 230.762 154 227L153 230L133 234L133 232L126 233L116 229L103 231L99 226L101 224L101 223L96 224L94 221L92 224L91 221L83 223C88.2044 216.755 80.3193 216.723 81 214L74 214z"/>
<path style="fill:#361b13; stroke:none;" d="M127 217L127 219L235 219C230.662 214.035 213.436 217 207 217L127 217z"/>
<path style="fill:#d2a118; stroke:none;" d="M229 219L229 220L234 218L229 219z"/>
<path style="fill:#712d0e; stroke:none;" d="M64 220L64 236L59 234C56.9855 239.07 54.5121 244.332 49 246L49 247L189 246L189 245L97 245C89.0191 245 71.0336 249.822 64.466 244.016C61.1201 241.058 67.0279 239.309 69 239L66 235L66 232C71.953 230.016 66.7253 223.378 64 220z"/>
<path style="fill:#b79064; stroke:none;" d="M109 220L109 221L216 221L183 220L109 220z"/>
<path style="fill:#fcd40b; stroke:none;" d="M227 220L227 222L232 222L232 220L227 220z"/>
<path style="fill:#ffffdf; stroke:none;" d="M114 221L114 223L180 223L215 222L184 221L114 221z"/>
<path style="fill:#f6d970; stroke:none;" d="M213 222L213 223L218 221L213 222z"/>
<path style="fill:#b08b32; stroke:none;" d="M218 221L218 223L221 223L221 221L218 221z"/>
<path style="fill:#bf7309; stroke:none;" d="M225 221L219 235L231 222L225 221z"/>
<path style="fill:#fff8ec; stroke:none;" d="M59 222C57.831 234.9 44.303 238.894 40 250C49.2441 247.247 63.9032 232.207 61 222L59 222z"/>
<path style="fill:#b8814e; stroke:none;" d="M62 222L62 229L63 229L62 222z"/>
<path style="fill:#f1d79a; stroke:none;" d="M122 223L122 224L211 224L184 223L122 223z"/>
<path style="fill:#954703; stroke:none;" d="M221 226L211 241C217.524 241.941 222.574 231.728 221 226z"/>
<path style="fill:#6f683f; stroke:none;" d="M57 227L58 228L57 227z"/>
<path style="fill:#c37e33; stroke:none;" d="M199 228L200 232L191 235C187.783 234.3 175.321 232.481 178 238C167.444 242.289 160.002 243.531 149 239L150 241L149 241L142 239L143 242C140.195 242.321 138.41 243.177 138 240L137 240L136 243L121 236L120 236L111 239L101 238L101 239L103 240L101 244L86 241L88 242L92 239L81 237L82 233L78 233L80 229L75 229L77 232C74.2325 232.605 74.4234 233.289 75 236L67 234L67 233L69 233L69 232L66 235L69 244C99.135 246.165 129.706 245 160 245C173.619 245 186.795 248.305 196 237L197 242C204.111 241.434 210.878 232.621 216 228L216 227L213 229L199 228z"/>
<path style="fill:#ffffbb; stroke:none;" d="M57 228L48 240C51.7942 237.305 57.2528 233.011 57 228z"/>
<path style="fill:#a95e1d; stroke:none;" d="M61 229L47 247C53.9308 245.453 57.1598 240.643 59 234L64 236L61 229z"/>
<path style="fill:#867d3f; stroke:none;" d="M53 232L54 233L53 232z"/>
<path style="fill:#6e6738; stroke:none;" d="M52 233L53 234L52 233z"/>
<path style="fill:#8c3f19; stroke:none;" d="M202 242L211 234C206.331 235.575 203.358 237.078 202 242z"/>
<path style="fill:#9b5623; stroke:none;" d="M195 237L190 245C194.486 245 199.154 245.947 202 242L197 242L195 237z"/>
<path style="fill:#888953; stroke:none;" d="M47 239L48 240L47 239z"/>
<path style="fill:#a55418; stroke:none;" d="M84 246L84 245L69 244L67 239C63.2183 240.149 60.9905 243.61 66.0594 245.137C71.6568 246.824 78.2237 246 84 246z"/>
<path style="fill:#6f714b; stroke:none;" d="M46 240L47 241L46 240z"/>
<path style="fill:#606546; stroke:none;" d="M45 241L46 242L45 241z"/>
<path style="fill:#361b0d; stroke:none;" d="M46 247L46 249C85.6472 252.129 126.196 250 166 250C175.129 250 200.976 254.483 205 245L46 247z"/>
<path style="fill:#939666; stroke:none;" d="M41 246L42 247L41 246z"/>
<path style="fill:#6a6946; stroke:none;" d="M40 247L41 248L40 247z"/>
<path style="fill:#a55825; stroke:none;" d="M43 249L43 250L50 251L50 250L46 248L43 249z"/>
<path style="fill:#c86902; stroke:none;" d="M203 251L207 251L206 248L203 251z"/>
<path style="fill:#ffeca7; stroke:none;" d="M39 249L39 251L41 251L39 249z"/>
<path style="fill:#f5ab42; stroke:none;" d="M41 251L44 251L43 249L41 251z"/>
<path style="fill:#663207; stroke:none;" d="M46 249L46 250L50 250L50 251L40 251L40 252L203 251C190.83 245.893 169.253 250 156 250C119.332 250 82.5808 250.571 46 249z"/>
<path style="fill:#2e1902; stroke:none;" d="M52 251L52 252L208 252C195.83 246.893 174.253 251 161 251L52 251z"/>
</svg>
