<?xml version="1.0" standalone="yes"?>
<svg width="15" height="15">
<path style="fill:#ffffff; stroke:none;" d="M0 0L0 2L2 0L0 0z"/>
<path style="fill:#000000; stroke:none;" d="M15 15C13.9774 11.1085 11.9144 2.19547 7.8912 0.608025C2.22004 -1.62965 -2.36657 4.9884 1.6034 9.56559C3.91738 12.2335 11.5714 14.0877 15 15z"/>
<path style="fill:#ffffff; stroke:none;" d="M9 0L15 12L15 0L9 0M4.3179 3.17515C0.891784 4.92181 4.42662 10.0238 7.38194 7.91435C9.96964 6.06733 7.10411 1.75473 4.3179 3.17515M0 9L0 15L12 15L0 9z"/>
</svg>
