<svg width="22" height="20" viewBox="0 0 22 20" fill="none" xmlns="http://www.w3.org/2000/svg">
<path d="M21.9339 18.5624L14.7922 12.0699C15.9004 10.7675 16.4999 9.17496 16.4999 7.49997C16.4999 5.49498 15.6392 3.61498 14.0827 2.19749C12.5262 0.779996 10.4527 0 8.24996 0C6.04722 0 3.97373 0.782496 2.41724 2.19749C0.857996 3.61248 0 5.49498 0 7.49997C0 9.50246 0.860746 11.3874 2.41724 12.8024C3.97373 14.2199 6.04447 14.9999 8.24996 14.9999C10.0925 14.9999 11.8414 14.4549 13.2742 13.4499L20.4159 19.9399C20.4369 19.959 20.4617 19.9741 20.4891 19.9844C20.5165 19.9947 20.5458 20 20.5754 20C20.605 20 20.6344 19.9947 20.6617 19.9844C20.6891 19.9741 20.714 19.959 20.7349 19.9399L21.9339 18.8524C21.9549 18.8334 21.9715 18.8108 21.9828 18.7859C21.9942 18.761 22 18.7343 22 18.7074C22 18.6805 21.9942 18.6538 21.9828 18.6289C21.9715 18.6041 21.9549 18.5815 21.9339 18.5624V18.5624ZM12.6059 11.46C11.44 12.5174 9.89446 13.0999 8.24996 13.0999C6.60547 13.0999 5.05998 12.5174 3.89398 11.46C2.73074 10.4 2.08999 8.99496 2.08999 7.49997C2.08999 6.00497 2.73074 4.59748 3.89398 3.53998C5.05998 2.48249 6.60547 1.89999 8.24996 1.89999C9.89446 1.89999 11.4427 2.47999 12.6059 3.53998C13.7692 4.59998 14.4099 6.00497 14.4099 7.49997C14.4099 8.99496 13.7692 10.4025 12.6059 11.46Z" fill="#898080"/>
</svg>
