<svg width="18" height="14" viewBox="0 0 18 14" fill="none" xmlns="http://www.w3.org/2000/svg">
<path d="M17.3848 2.7832C17.2851 2.41218 17.0898 2.07384 16.8184 1.80202C16.5469 1.53021 16.2088 1.33446 15.8379 1.23438C14.4727 0.867188 9 0.867188 9 0.867188C9 0.867188 3.52734 0.867187 2.16211 1.23242C1.79106 1.33219 1.45278 1.52782 1.18126 1.79969C0.90974 2.07155 0.71453 2.41007 0.615234 2.78125C0.25 4.14844 0.25 7 0.25 7C0.25 7 0.25 9.85156 0.615234 11.2168C0.816406 11.9707 1.41016 12.5645 2.16211 12.7656C3.52734 13.1328 9 13.1328 9 13.1328C9 13.1328 14.4727 13.1328 15.8379 12.7656C16.5918 12.5645 17.1836 11.9707 17.3848 11.2168C17.75 9.85156 17.75 7 17.75 7C17.75 7 17.75 4.14844 17.3848 2.7832ZM7.26172 9.61719V4.38281L11.793 6.98047L7.26172 9.61719Z" fill="white"/>
</svg>
